<?xml version="1.0" standalone="no"?>
<!DOCTYPE svg PUBLIC "-//W3C//DTD SVG 20010904//EN"
 "http://www.w3.org/TR/2001/REC-SVG-20010904/DTD/svg10.dtd">
<svg version="1.0" xmlns="http://www.w3.org/2000/svg"
 width="800.000000pt" height="800.000000pt" viewBox="0 0 800.000000 800.000000"
 preserveAspectRatio="xMidYMid meet">

<g transform="translate(0.000000,800.000000) scale(0.100000,-0.100000)"
fill="#000000" stroke="none">
<path d="M3870 7491 c-72 -24 -130 -52 -125 -62 3 -3 -1 -6 -8 -5 -20 2 -187
-96 -180 -107 3 -6 1 -7 -5 -3 -10 6 -81 -29 -93 -47 -3 -5 -9 -7 -12 -5 -4 1
-14 -4 -24 -12 -10 -9 -22 -16 -26 -17 -5 0 -54 -28 -110 -61 -56 -33 -124
-72 -152 -87 -27 -16 -52 -31 -55 -34 -3 -3 -34 -21 -70 -40 -111 -59 -355
-203 -362 -215 -4 -6 -8 -8 -8 -4 0 7 -18 -3 -603 -343 -203 -118 -393 -228
-423 -244 -30 -17 -59 -36 -66 -43 -7 -7 -16 -12 -20 -12 -19 0 -377 -213
-372 -221 3 -5 -2 -6 -10 -3 -24 9 -146 -120 -179 -189 -59 -123 -58 -67 -55
-1777 l3 -1565 27 -72 c57 -154 115 -211 365 -355 235 -137 469 -272 723 -418
445 -257 1272 -735 1590 -919 209 -121 270 -143 395 -143 119 0 178 20 340
114 125 72 810 468 1620 936 215 124 514 297 665 384 151 88 292 176 314 196
55 52 112 144 139 221 l22 66 3 1555 c2 1093 0 1579 -8 1635 -23 167 -112 275
-330 400 -74 42 -171 99 -215 125 -44 26 -100 59 -125 72 -25 14 -69 39 -97
56 -29 17 -53 28 -53 24 0 -4 -4 -2 -8 4 -7 11 -386 234 -397 234 -3 0 -19 10
-34 21 -17 13 -34 18 -42 14 -7 -5 -10 -4 -6 2 6 9 -117 88 -127 81 -2 -2 -12
4 -22 13 -11 9 -107 67 -214 128 -107 62 -202 116 -210 121 -160 97 -313 179
-322 174 -6 -4 -8 -3 -5 3 6 9 -20 27 -32 23 -2 -1 -7 2 -10 7 -3 5 -40 28
-81 52 -41 25 -95 57 -120 71 -25 15 -65 39 -90 53 -25 13 -78 43 -117 66 -40
24 -77 40 -83 36 -6 -4 -9 -1 -8 7 2 7 -3 12 -9 11 -7 -2 -13 1 -13 6 0 14
-133 79 -196 96 -78 20 -205 19 -274 -4z m550 -1506 c261 -47 538 -150 727
-271 28 -18 54 -30 57 -27 3 4 6 2 6 -4 0 -6 29 -30 64 -53 36 -23 70 -48 76
-55 6 -8 19 -11 28 -8 9 3 14 2 9 -2 -7 -8 20 -45 32 -45 18 0 301 -293 301
-311 0 -5 7 -12 15 -15 8 -4 15 -10 15 -15 0 -5 24 -42 53 -84 64 -93 91 -145
80 -155 -6 -6 -303 -181 -508 -300 -16 -9 -92 -54 -169 -99 -135 -79 -166 -92
-166 -70 0 20 -87 142 -141 199 -29 30 -46 46 -38 35 11 -17 11 -18 -1 -7 -8
7 -15 18 -15 24 0 11 -84 85 -149 133 -95 69 -234 132 -369 167 -96 25 -306
30 -397 9 -99 -23 -190 -53 -184 -62 3 -5 -1 -6 -8 -4 -31 12 -278 -131 -261
-150 5 -4 3 -5 -3 -2 -10 6 -144 -107 -144 -122 0 -5 -16 -25 -35 -45 -19 -21
-33 -41 -30 -46 3 -4 -1 -10 -8 -13 -6 -3 -23 -27 -37 -53 -14 -27 -28 -51
-31 -54 -14 -13 -69 -163 -87 -240 -40 -170 -36 -351 9 -517 20 -72 66 -192
79 -203 3 -3 17 -27 32 -55 15 -27 32 -49 38 -47 7 1 9 -2 5 -8 -9 -15 66
-110 144 -181 131 -120 294 -208 470 -252 127 -31 360 -31 486 2 196 51 350
138 495 278 47 46 88 82 92 80 25 -8 797 -474 797 -481 1 -4 -28 -45 -63 -90
-191 -244 -413 -424 -697 -565 -552 -275 -1193 -279 -1748 -11 -339 164 -613
406 -832 736 -31 46 -60 80 -64 76 -5 -4 -5 -2 -1 5 4 7 -18 61 -47 120 -30
59 -58 119 -62 132 -4 13 -14 40 -23 60 -9 20 -17 41 -18 46 -1 6 -13 48 -27
95 -50 173 -70 319 -71 525 -1 269 30 454 118 696 84 233 185 402 387 652 36
45 149 158 149 149 0 -4 4 -2 8 4 8 11 122 107 164 138 15 11 24 24 21 29 -3
6 -1 7 6 3 6 -4 32 7 59 26 26 18 72 46 102 62 88 47 110 62 103 70 -4 4 1 4
11 0 15 -6 17 -4 11 6 -5 8 -4 11 3 6 10 -6 29 1 127 45 105 47 371 113 520
129 114 12 434 4 535 -15z m1367 -1685 l-3 -90 133 0 133 0 0 90 0 90 110 0
110 0 0 -90 0 -90 88 0 88 0 -2 -107 -3 -108 -85 0 -86 0 0 -132 0 -133 88 0
87 0 -2 -107 -1 -108 -86 -3 -86 -3 0 -89 0 -90 -110 0 -110 0 0 90 0 90 -132
0 -133 0 0 -87 0 -88 -107 -3 -108 -3 0 91 0 90 -90 0 -90 0 0 110 0 110 90 0
90 0 0 133 0 132 -87 0 -88 0 -3 108 -3 107 91 0 90 0 0 90 0 90 110 0 111 0
-4 -90z"/>
<path d="M5789 3995 c0 0 -1 -60 -2 -133 l-2 -132 133 0 132 0 0 133 0 132
-130 0 c-71 0 -130 0 -131 0z"/>
</g>
</svg>
