<?xml version="1.0" encoding="UTF-8"?>
<svg version="1.1" xmlns="http://www.w3.org/2000/svg" width="530" height="471">
<path d="M0 0 C1.34384766 0.71736328 1.34384766 0.71736328 2.71484375 1.44921875 C12.54389462 6.71735908 22.20933804 12.29031275 31.75 18.0625 C46.54035353 27.00541103 61.60237091 35.50368563 76.6171875 44.0625 C81.58705266 46.90898166 86.538991 49.78623298 91.49316406 52.65991211 C98.23825028 56.56829853 105.00796296 60.4325077 111.78222656 64.29003906 C119.83753403 68.88670474 127.84262584 73.56824458 135.83081055 78.28051758 C141.13664125 81.39483888 146.45918481 84.32467148 152 87 C152 87.66 152 88.32 152 89 C152.66 89 153.32 89 154 89 C155.65625 90.90625 155.65625 90.90625 157.5 93.5 C158.1084375 94.3353125 158.716875 95.170625 159.34375 96.03125 C163.14470789 102.84428773 163.37987261 110.11308958 163.61230469 117.7409668 C163.64976177 118.81688174 163.68721886 119.89279669 163.725811 121.00131512 C164.18975498 135.87620792 164.18356803 150.7599024 164.20018864 165.64060807 C164.20316123 168.17542809 164.20727208 170.710244 164.21169281 173.24506187 C164.22526508 181.21666491 164.23498999 189.18825812 164.2388947 197.15987188 C164.24339738 206.29287745 164.26109005 215.42573503 164.2898953 224.55869561 C164.31155964 231.67865191 164.32160096 238.79856656 164.32293582 245.91855544 C164.32397732 250.14736474 164.32974842 254.3760329 164.34775543 258.6048069 C164.3643269 262.57041826 164.36634812 266.53578333 164.35761642 270.50141716 C164.3568518 271.94609365 164.36111189 273.39078399 164.37107468 274.83542633 C164.44798348 286.69076968 163.22332978 297.69261005 157 308 C156.01 308.33 155.02 308.66 154 309 C153.70996094 309.60328125 153.41992188 310.2065625 153.12109375 310.828125 C151.62813713 313.72040333 149.73041418 314.91654356 147.0625 316.75 C146.18722656 317.36359375 145.31195313 317.9771875 144.41015625 318.609375 C142 320 142 320 139 320 C139 320.66 139 321.32 139 322 C136.35261084 323.4606285 135.10551666 324 132 324 C132 324.66 132 325.32 132 326 C131.43152344 326.24234375 130.86304688 326.4846875 130.27734375 326.734375 C126.42321804 328.40728432 122.68295531 330.11133441 119.0625 332.25 C116 334 116 334 114 334 C114 334.66 114 335.32 114 336 C113.14019531 336.4125 112.28039062 336.825 111.39453125 337.25 C103.88230377 340.92009587 96.76613473 344.86177333 89.7421875 349.3984375 C87 351 87 351 84.6953125 351.5390625 C84.13585937 351.69117188 83.57640625 351.84328125 83 352 C82.67 352.99 82.34 353.98 82 355 C80.40037942 355.7261295 78.79305899 356.43843991 77.15771484 357.08007812 C72.84783329 358.91755648 68.8595578 361.40196349 64.8125 363.75 C63.88501953 364.28423584 62.95753906 364.81847168 62.00195312 365.36889648 C59.3321385 366.908331 56.66548771 368.45308846 54 370 C53.3198584 370.39396973 52.6397168 370.78793945 51.93896484 371.19384766 C45.63178019 374.84298009 45.63178019 374.84298009 39.39453125 378.609375 C36.68528917 380.18276845 33.99188321 381.09547717 31 382 C31 382.66 31 383.32 31 384 C30.20335937 384.38671875 29.40671875 384.7734375 28.5859375 385.171875 C21.79275849 388.44377494 21.79275849 388.44377494 15.375 392.375 C13 394 13 394 11 394 C10.67 394.66 10.34 395.32 10 396 C9.34 395.67 8.68 395.34 8 395 C8 395.66 8 396.32 8 397 C6.37750059 397.83819158 4.75191503 398.6704116 3.125 399.5 C1.76761719 400.19609375 1.76761719 400.19609375 0.3828125 400.90625 C-2 402 -2 402 -4 402 C-4 402.66 -4 403.32 -4 404 C-14.09828182 407.79499946 -22.35505245 409.58810725 -32.640625 405.58203125 C-35.81182624 404.1371441 -38.91807229 402.62546832 -42 401 C-42 400.34 -42 399.68 -42 399 C-42.886875 398.71125 -43.77375 398.4225 -44.6875 398.125 C-47.50382424 397.16851252 -50.25083156 396.13201054 -53 395 C-53 394.34 -53 393.68 -53 393 C-53.721875 392.71125 -54.44375 392.4225 -55.1875 392.125 C-57.79166667 391.08333333 -60.39583333 390.04166667 -63 389 C-63 388.34 -63 387.68 -63 387 C-64.32064453 386.60941406 -64.32064453 386.60941406 -65.66796875 386.2109375 C-68.96330722 385.01333501 -71.42134716 383.58670074 -74.3125 381.625 C-79.03512121 378.52618417 -83.75696855 376.08426682 -89 374 C-89 373.34 -89 372.68 -89 372 C-90.06927734 371.59587891 -90.06927734 371.59587891 -91.16015625 371.18359375 C-94.04708254 369.98037688 -96.70660559 368.58482837 -99.4375 367.0625 C-103.25503019 364.95254075 -107.07812575 362.90793882 -111 361 C-111 360.34 -111 359.68 -111 359 C-111.598125 358.855625 -112.19625 358.71125 -112.8125 358.5625 C-114.56150404 358.1127561 -116.28677023 357.57107659 -118 357 C-118 356.34 -118 355.68 -118 355 C-118.80244141 354.85111328 -118.80244141 354.85111328 -119.62109375 354.69921875 C-122.69617123 353.79537824 -125.25467195 352.35799952 -128.0625 350.8125 C-129.77179688 349.87664062 -129.77179688 349.87664062 -131.515625 348.921875 C-133.24039063 347.97054687 -133.24039063 347.97054687 -135 347 C-137.10375191 345.85340536 -139.20788003 344.7075005 -141.3125 343.5625 C-142.87520012 342.70869951 -144.43778119 341.85468083 -146 341 C-146 340.34 -146 339.68 -146 339 C-147.32 339 -148.64 339 -150 339 C-150 338.34 -150 337.68 -150 337 C-150.99 337 -151.98 337 -153 337 C-153 336.34 -153 335.68 -153 335 C-154.06927734 334.59587891 -154.06927734 334.59587891 -155.16015625 334.18359375 C-158.04708254 332.98037688 -160.70660559 331.58482837 -163.4375 330.0625 C-167.25444247 327.95448352 -171.08106636 325.91389782 -175 324 C-177 323 -179 322 -181 321 C-181 320.34 -181 319.68 -181 319 C-182.32 319 -183.64 319 -185 319 C-185.33 318.34 -185.66 317.68 -186 317 C-187.97522846 315.95191959 -189.97481509 314.9479589 -192 314 C-192 313.34 -192 312.68 -192 312 C-192.598125 311.731875 -193.19625 311.46375 -193.8125 311.1875 C-197.47085869 309.20153385 -199.24213658 307.03044944 -200.625 303.125 C-200.98464844 302.13886719 -200.98464844 302.13886719 -201.3515625 301.1328125 C-202.85257715 296.1957402 -203.14673631 291.49522942 -203.14044189 286.36004639 C-203.14341302 285.59850006 -203.14638414 284.83695374 -203.1494453 284.05233026 C-203.15810571 281.5046022 -203.15963829 278.95692128 -203.16113281 276.40917969 C-203.16576286 274.58070272 -203.17078778 272.75222672 -203.17617798 270.92375183 C-203.18928586 265.95872629 -203.19574378 260.99371426 -203.20018864 256.02867413 C-203.20312193 252.92512264 -203.20722722 249.82157484 -203.21169281 246.71802521 C-203.22536342 237.00305885 -203.23503225 227.28810091 -203.2388947 217.5731256 C-203.24337468 206.36725216 -203.26092166 195.16150074 -203.2898953 183.9556644 C-203.3115267 175.2879762 -203.32159976 166.62032229 -203.32293582 157.95260739 C-203.32398279 152.77848444 -203.32986765 147.60447626 -203.34775543 142.43038177 C-203.36426132 137.56138434 -203.36637937 132.69258765 -203.35761642 127.82357216 C-203.3568474 126.04062931 -203.36117092 124.25767556 -203.37107468 122.47476006 C-203.45766745 105.90909068 -203.45766745 105.90909068 -200 98 C-199.66742188 97.17628906 -199.33484375 96.35257812 -198.9921875 95.50390625 C-194.59495577 87.862563 -187.09439425 84.52296386 -179.61621094 80.44677734 C-174.77251963 77.76819255 -170.02088985 74.93048485 -165.25 72.125 C-156.84357438 67.21496444 -148.40642015 62.36162974 -139.94555664 57.54614258 C-133.16544507 53.68140847 -126.42309013 49.75422798 -119.6875 45.8125 C-111.61287389 41.08818346 -103.51045451 36.42345609 -95.33984375 31.8671875 C-87.88816122 27.70121762 -80.50729227 23.41237319 -73.125 19.125 C-71.56845703 18.22587891 -71.56845703 18.22587891 -69.98046875 17.30859375 C-64.50731263 14.12684725 -59.1819764 10.82684536 -53.94384766 7.27294922 C-51.43215539 5.62814095 -48.83432996 4.28942616 -46.125 3 C-42.04991993 1.03254096 -38.11049695 -1.05771849 -34.1875 -3.3125 C-21.92144022 -10.00626405 -11.48434954 -6.39350359 0 0 Z M-38 85 C-39.93652942 85.22592843 -41.87332826 85.45034669 -43.8125 85.65234375 C-46.98529209 86.15659106 -49.9059985 87.19640234 -52.921875 88.28125 C-54.93116503 88.97619242 -56.93105266 89.5153817 -59 90 C-59 90.66 -59 91.32 -59 92 C-60.32257813 92.16628906 -60.32257813 92.16628906 -61.671875 92.3359375 C-70.368008 94.07108141 -79.28034746 100.34441391 -86 106 C-86 106.66 -86 107.32 -86 108 C-86.99 108 -87.98 108 -89 108 C-91.07698405 109.81766936 -91.07698405 109.81766936 -91.8125 112 C-93.40298924 114.67871871 -95.09744918 115.083405 -98 116 C-98 116.66 -98 117.32 -98 118 C-98.59296875 118.25910156 -99.1859375 118.51820313 -99.796875 118.78515625 C-102.15858141 120.08744471 -103.50886446 121.39298478 -105.25 123.4375 C-105.77078125 124.03433594 -106.2915625 124.63117188 -106.828125 125.24609375 C-108.2777773 127.06417693 -108.2777773 127.06417693 -108 130 C-109.485 130.495 -109.485 130.495 -111 131 C-112.99396257 133.66083969 -115 136.61242325 -115 140 C-115.66 140 -116.32 140 -117 140 C-131.97099019 167.89011877 -138.73303497 200.09174575 -129.8125 231.29296875 C-123.67285025 251.45155764 -113.02751451 272.90191192 -96 286 C-94.88625 287.1446875 -94.88625 287.1446875 -93.75 288.3125 C-86.39418705 295.50113539 -77.85855632 300.84612898 -69 306 C-68.18917969 306.47566406 -67.37835938 306.95132813 -66.54296875 307.44140625 C-40.81379311 321.42370102 -7.6157018 322.00264993 20 314 C37.04917402 308.78159454 51.60761448 299.68075076 65 288 C65.825 287.3709375 66.65 286.741875 67.5 286.09375 C70.28043986 283.76513162 72.42099805 281.26581737 74.6875 278.4375 C75.45449219 277.48746094 76.22148437 276.53742188 77.01171875 275.55859375 C79.92947306 272.18109315 79.92947306 272.18109315 81.0625 268.0625 C79.64111511 265.30334109 77.58756321 264.40334922 74.8984375 263.00390625 C73 262 73 262 69.9375 259.9375 C67.10843753 257.9813371 67.10843753 257.9813371 64.296875 256.6796875 C60.47583754 254.7329504 56.92207227 252.49564412 53.3125 250.1875 C46.99994651 246.19101069 40.6284105 242.45463768 34 239 C32.62437146 240.28965176 31.29233607 241.62689293 30 243 C30 243.66 30 244.32 30 245 C29.01 245.33 28.02 245.66 27 246 C27 246.66 27 247.32 27 248 C26.43152344 248.27972656 25.86304688 248.55945313 25.27734375 248.84765625 C20.49818827 251.26592532 15.81477122 253.88639039 11.25 256.6875 C-0.9344393 263.79508959 -17.36794718 263.49465254 -30.65234375 260.12109375 C-37.76286059 257.73985882 -44.40999327 254.21854349 -50.78125 250.28125 C-52.86164101 248.83330854 -52.86164101 248.83330854 -55 249 C-55.33 247.68 -55.66 246.36 -56 245 C-56.66 245 -57.32 245 -58 245 C-58 244.34 -58 243.68 -58 243 C-58.66 243 -59.32 243 -60 243 C-60 242.34 -60 241.68 -60 241 C-60.99113789 239.99121574 -61.99301539 238.99296626 -63 238 C-72.10738071 224.76394004 -77.6203843 208.2617043 -74.64697266 192.07861328 C-72.64898057 182.65633981 -70.18932512 173.68511134 -64.5 165.75 C-63.9121875 164.91984375 -63.324375 164.0896875 -62.71875 163.234375 C-61 161 -61 161 -59.28125 159.328125 C-57.76856925 158.06766968 -57.76856925 158.06766968 -58 156 C-57.46375 155.773125 -56.9275 155.54625 -56.375 155.3125 C-53.84842549 154.03934129 -53.84842549 154.03934129 -51.5625 151.75 C-46.74544272 147.62806238 -40.79675302 145.41011953 -35 143 C-33.83017578 142.48179687 -33.83017578 142.48179687 -32.63671875 141.953125 C-19.8954166 137.15533449 -3.33040643 138.88516474 9 144 C22.70221714 150.35064976 32.7954041 160.52418799 41 173 C45.32542886 171.41511004 49.25975191 169.27558092 53.25 167 C53.93803711 166.61062256 54.62607422 166.22124512 55.33496094 165.82006836 C61.40137672 162.37299246 67.41756107 158.84087371 73.41503906 155.27539062 C74.4238916 154.67694336 74.4238916 154.67694336 75.453125 154.06640625 C76.04254883 153.71521729 76.63197266 153.36402832 77.23925781 153.00219727 C79.12674132 151.92786008 81.04980896 150.9550153 83 150 C83 149.34 83 148.68 83 148 C83.598125 147.855625 84.19625 147.71125 84.8125 147.5625 C86.56150404 147.1127561 88.28677023 146.57107659 90 146 C89.46231645 142.00577935 88.3908456 139.82352456 85.8125 136.75 C83.28901012 133.65885391 81.01229342 130.55720677 78.875 127.1875 C76.63135909 123.73805208 74.36132312 121.42762225 71 119 C70.34 118.01 69.68 117.02 69 116 C68.01 115.34 67.02 114.68 66 114 C65.4225 113.401875 64.845 112.80375 64.25 112.1875 C59.30330544 107.16257879 59.30330544 107.16257879 53 105 C53 104.34 53 103.68 53 103 C51.906875 102.34 50.81375 101.68 49.6875 101 C49.07261719 100.62875 48.45773437 100.2575 47.82421875 99.875 C45.88638074 98.78376001 45.88638074 98.78376001 43 99 C43 98.34 43 97.68 43 97 C32.1665328 91.47600435 21.91054005 87.45484413 10 85 C9.07574219 84.78730469 8.15148437 84.57460937 7.19921875 84.35546875 C-6.70217175 81.27366129 -24.58332367 79.49851036 -38 85 Z M71 178 C71 180.31 71 182.62 71 185 C72.32 185 73.64 185 75 185 C75.33 184.01 75.66 183.02 76 182 C78.31 182 80.62 182 83 182 C82.773125 182.928125 82.54625 183.85625 82.3125 184.8125 C81.65342043 187.90785404 81.65342043 187.90785404 83.203125 189.66015625 C85.38765411 191.28905513 86.73753929 191.45198397 89.4375 191.625 C91.81054922 191.79364309 93.83976347 191.94935222 96.11328125 192.66796875 C97.04720703 192.83232422 97.04720703 192.83232422 98 193 C100.81268079 190.77069744 100.81268079 190.77069744 103 188 C103 187.34 103 186.68 103 186 C102.01 186.33 101.02 186.66 100 187 C97.43365139 187.22718496 94.88321893 187.41608184 92.3125 187.5625 C91.61060547 187.60568359 90.90871094 187.64886719 90.18554688 187.69335938 C88.45724794 187.7991736 86.7286489 187.90006581 85 188 C84.67 184.7 84.34 181.4 84 178 C79.71 178 75.42 178 71 178 Z M107 178 C106.01 179.485 106.01 179.485 105 181 C105.33 181.33 105.66 181.66 106 182 C108.33944736 181.71269945 110.6739143 181.38063221 113 181 C113 180.01 113 179.02 113 178 C110.08365871 177.7497843 110.08365871 177.7497843 107 178 Z M61 188 C61 190.31 61 192.62 61 195 C62.32 195 63.64 195 65 195 C65.66 193.02 66.32 191.04 67 189 C65.93354885 187.70366379 65.93354885 187.70366379 63.4375 187.9375 C62.633125 187.958125 61.82875 187.97875 61 188 Z M117 189 C117.34786708 190.97536745 117.34786708 190.97536745 118 193 C118.66 193.33 119.32 193.66 120 194 C120 193.34 120 192.68 120 192 C120.66 192 121.32 192 122 192 C121.67 194.31 121.34 196.62 121 199 C121.66 198.67 122.32 198.34 123 198 C123 195.03 123 192.06 123 189 C119.25308553 187.60229416 119.25308553 187.60229416 117 189 Z M87 195 C84.95112791 197.81432629 84.95112791 197.81432629 84 201 C87.96 201 91.92 201 96 201 C95.34 199.35 94.68 197.7 94 196 C91.69 195.67 89.38 195.34 87 195 Z M67 199 C67 199.66 67 200.32 67 201 C68.32 201 69.64 201 71 201 C71.33 202.32 71.66 203.64 72 205 C72 204.34 72 203.68 72 203 C72.66 202.67 73.32 202.34 74 202 C72.63676257 199.9600281 72.63676257 199.9600281 71 198 C68.9254644 197.8509288 68.9254644 197.8509288 67 199 Z M80 204 C80.99 206.97 81.98 209.94 83 213 C83.33 213 83.66 213 84 213 C84 209.37 84 205.74 84 202 C82.53774984 201.90754997 82.53774984 201.90754997 80 204 Z M71 206 C72 208 72 208 72 208 Z M107 206 C107.33 206.99 107.66 207.98 108 209 C108 208.01 108 207.02 108 206 C107.67 206 107.34 206 107 206 Z M111 206 C111 207.65 111 209.3 111 211 C111.66 210.34 112.32 209.68 113 209 C112.67 208.01 112.34 207.02 112 206 C111.67 206 111.34 206 111 206 Z M71 209 C72 211 72 211 72 211 Z M61 224 C61 225.65 61 227.3 61 229 C63.31 229 65.62 229 68 229 C66.78969026 226.42672567 66.78969026 226.42672567 65 224 C63.68 224 62.36 224 61 224 Z M71 229 C71 232.3 71 235.6 71 239 C72.32 239 73.64 239 75 239 C74.71125 237.72125 74.4225 236.4425 74.125 235.125 C73.96257812 234.40570313 73.80015625 233.68640625 73.6328125 232.9453125 C73.09525572 230.79280036 73.09525572 230.79280036 71 229 Z " fill="#803588" transform="translate(286,35)"/>
<path d="M0 0 C1.34384766 0.71736328 1.34384766 0.71736328 2.71484375 1.44921875 C12.54389462 6.71735908 22.20933804 12.29031275 31.75 18.0625 C46.54035353 27.00541103 61.60237091 35.50368563 76.6171875 44.0625 C81.58705266 46.90898166 86.538991 49.78623298 91.49316406 52.65991211 C98.23825028 56.56829853 105.00796296 60.4325077 111.78222656 64.29003906 C119.83753403 68.88670474 127.84262584 73.56824458 135.83081055 78.28051758 C141.13664125 81.39483888 146.45918481 84.32467148 152 87 C152 87.66 152 88.32 152 89 C152.66 89 153.32 89 154 89 C155.69140625 91.08203125 155.69140625 91.08203125 157.5625 93.8125 C158.18253906 94.70582031 158.80257813 95.59914063 159.44140625 96.51953125 C161.15319488 99.24380639 162.20814259 100.95928707 161.5625 104.1875 C161.376875 104.785625 161.19125 105.38375 161 106 C160.30865967 106.09063721 159.61731934 106.18127441 158.9050293 106.2746582 C155.32758691 107.16789136 152.68965243 108.72110241 149.51953125 110.60546875 C148.90663742 110.96715652 148.29374359 111.3288443 147.66227722 111.70149231 C145.7082806 112.85678314 143.76039198 114.02195214 141.8125 115.1875 C140.52317449 115.95182681 139.23346409 116.71550476 137.94335938 117.47851562 C130.91916976 121.63771684 130.91916976 121.63771684 123.95068359 125.88916016 C123.0633252 126.43749512 122.1759668 126.98583008 121.26171875 127.55078125 C120.50205811 128.02813721 119.74239746 128.50549316 118.9597168 128.99731445 C117 130 117 130 114 130 C114 130.66 114 131.32 114 132 C107.375 136 107.375 136 104 136 C104 136.66 104 137.32 104 138 C102.20856793 138.9795958 100.41684696 139.9586633 98.625 140.9375 C97.62726563 141.48277344 96.62953125 142.02804688 95.6015625 142.58984375 C94.07929654 143.4149759 92.54871217 144.22564391 91 145 C91 144.34 91 143.68 91 143 C90.34 143 89.68 143 89 143 C86 139.53846154 86 139.53846154 86 137 C85.34 136.67 84.68 136.34 84 136 C80 131.41176471 80 131.41176471 80 129 C79.34 128.67 78.68 128.34 78 128 C77.731875 127.195625 77.46375 126.39125 77.1875 125.5625 C75.65538343 122.25635371 74.30401609 122.23900604 71 121 C70.30062468 119.68352881 69.63270867 118.34977849 69 117 C67.67592331 116.31513275 66.34090759 115.65129797 65 115 C63.31183067 113.35511706 61.64646685 111.68662458 60 110 C56.68966618 107.20935253 56.68966618 107.20935253 53 105 C53 104.34 53 103.68 53 103 C51.68 103 50.36 103 49 103 C47.4375 101.5625 47.4375 101.5625 46 100 C45.01 99.67 44.02 99.34 43 99 C43 98.34 43 97.68 43 97 C42.443125 96.82984375 41.88625 96.6596875 41.3125 96.484375 C37.4919318 95.27108645 33.93125019 94.03994698 30.4375 92.0625 C24.12948168 88.76311567 16.89713982 87.55496639 10 86 C8.59621094 85.67322266 8.59621094 85.67322266 7.1640625 85.33984375 C-6.75126344 82.30008808 -24.57426385 80.49479539 -38 86 C-39.93395896 86.22562854 -41.86816892 86.44985607 -43.8046875 86.65234375 C-48.36224163 87.37409165 -52.87508976 88.93754488 -57 91 C-57.66 90.67 -58.32 90.34 -59 90 C-59 90.66 -59 91.32 -59 92 C-60.32 92 -61.64 92 -63 92 C-63.33 92.66 -63.66 93.32 -64 94 C-65.671875 94.96484375 -65.671875 94.96484375 -67.75 95.9375 C-74.32858162 99.10322174 -80.8058588 102.8058588 -86 108 C-86.99 108 -87.98 108 -89 108 C-89.495 109.485 -89.495 109.485 -90 111 C-91.62053812 112.38903267 -93.29705213 113.71332828 -95 115 C-100.20661905 119.09882776 -105.85070222 123.55210665 -108 130 C-108.61875 130.598125 -109.2375 131.19625 -109.875 131.8125 C-112.30940716 134.31850737 -113.56190837 136.83619841 -115 140 C-115.66 140 -116.32 140 -117 140 C-117.99 143.96 -117.99 143.96 -119 148 C-119.66 148 -120.32 148 -121 148 C-121.268125 148.81726563 -121.53625 149.63453125 -121.8125 150.4765625 C-122.66410622 153.00336778 -123.53524862 155.51494123 -124.4375 158.0234375 C-124.69273437 158.735 -124.94796875 159.4465625 -125.2109375 160.1796875 C-125.73449315 161.63631262 -126.26051265 163.09205463 -126.7890625 164.546875 C-129.45143205 171.99613122 -131.265156 178.99165343 -131.625 186.9375 C-131.66149658 187.66622314 -131.69799316 188.39494629 -131.7355957 189.14575195 C-132.95547955 215.78035867 -128.5636253 237.40075788 -116 261 C-115.32823621 262.33077257 -114.6585901 263.66265887 -114 265 C-116.2483966 266.46085662 -118.49862173 267.91875136 -120.75 269.375 C-121.38421875 269.7875 -122.0184375 270.2 -122.671875 270.625 C-130.99445565 276 -130.99445565 276 -135 276 C-135 276.66 -135 277.32 -135 278 C-141.625 282 -141.625 282 -145 282 C-145 282.66 -145 283.32 -145 284 C-147.64738916 285.4606285 -148.89448334 286 -152 286 C-152 286.66 -152 287.32 -152 288 C-158.625 292 -158.625 292 -162 292 C-162 292.66 -162 293.32 -162 294 C-164.64738916 295.4606285 -165.89448334 296 -169 296 C-169 296.66 -169 297.32 -169 298 C-172.29549466 299.72264494 -175.33118845 301.29445932 -179 302 C-179 302.66 -179 303.32 -179 304 C-182.92592596 306.05643741 -186.76570244 307.68938409 -191 309 C-191 309.66 -191 310.32 -191 311 C-194.75650101 310.49236473 -196.55458243 309.89851946 -199 307 C-199.9140625 305.1328125 -199.9140625 305.1328125 -200.625 303.125 C-200.98464844 302.13886719 -200.98464844 302.13886719 -201.3515625 301.1328125 C-202.85257715 296.1957402 -203.14673631 291.49522942 -203.14044189 286.36004639 C-203.14341302 285.59850006 -203.14638414 284.83695374 -203.1494453 284.05233026 C-203.15810571 281.5046022 -203.15963829 278.95692128 -203.16113281 276.40917969 C-203.16576286 274.58070272 -203.17078778 272.75222672 -203.17617798 270.92375183 C-203.18928586 265.95872629 -203.19574378 260.99371426 -203.20018864 256.02867413 C-203.20312193 252.92512264 -203.20722722 249.82157484 -203.21169281 246.71802521 C-203.22536342 237.00305885 -203.23503225 227.28810091 -203.2388947 217.5731256 C-203.24337468 206.36725216 -203.26092166 195.16150074 -203.2898953 183.9556644 C-203.3115267 175.2879762 -203.32159976 166.62032229 -203.32293582 157.95260739 C-203.32398279 152.77848444 -203.32986765 147.60447626 -203.34775543 142.43038177 C-203.36426132 137.56138434 -203.36637937 132.69258765 -203.35761642 127.82357216 C-203.3568474 126.04062931 -203.36117092 124.25767556 -203.37107468 122.47476006 C-203.45766745 105.90909068 -203.45766745 105.90909068 -200 98 C-199.66742188 97.17628906 -199.33484375 96.35257812 -198.9921875 95.50390625 C-194.59495577 87.862563 -187.09439425 84.52296386 -179.61621094 80.44677734 C-174.77251963 77.76819255 -170.02088985 74.93048485 -165.25 72.125 C-156.84357438 67.21496444 -148.40642015 62.36162974 -139.94555664 57.54614258 C-133.16544507 53.68140847 -126.42309013 49.75422798 -119.6875 45.8125 C-111.61287389 41.08818346 -103.51045451 36.42345609 -95.33984375 31.8671875 C-87.88816122 27.70121762 -80.50729227 23.41237319 -73.125 19.125 C-71.56845703 18.22587891 -71.56845703 18.22587891 -69.98046875 17.30859375 C-64.50731263 14.12684725 -59.1819764 10.82684536 -53.94384766 7.27294922 C-51.43215539 5.62814095 -48.83432996 4.28942616 -46.125 3 C-42.04991993 1.03254096 -38.11049695 -1.05771849 -34.1875 -3.3125 C-21.92144022 -10.00626405 -11.48434954 -6.39350359 0 0 Z " fill="#9A4D96" transform="translate(286,35)"/>
<path d="M0 0 C1.5703125 1.9609375 1.5703125 1.9609375 3.125 4.375 C3.90230469 5.56222656 3.90230469 5.56222656 4.6953125 6.7734375 C6 9 6 9 7 12 C7.99 12.33 8.98 12.66 10 13 C12.1875 14.9375 12.1875 14.9375 14 17 C14 17.66 14 18.32 14 19 C15.485 19.495 15.485 19.495 17 20 C17 20.66 17 21.32 17 22 C17.57878906 22.26554687 18.15757812 22.53109375 18.75390625 22.8046875 C21.08073855 24.04296695 22.90662924 25.44884947 24.9375 27.125 C30.63671312 31.62437878 36.73018858 35.35224994 43 39 C44.21623047 39.71349609 44.21623047 39.71349609 45.45703125 40.44140625 C71.18620689 54.42370102 104.3842982 55.00264993 132 47 C153.5343542 40.40877209 171.57346611 27.68344642 186.5625 11 C187.30628906 10.175 188.05007813 9.35 188.81640625 8.5 C190.95284014 6.0539934 192.99094213 3.5511846 195 1 C195.33 1.99 195.66 2.98 196 4 C197.942456 5.4326637 197.942456 5.4326637 200.375 6.70703125 C201.73044922 7.4640332 201.73044922 7.4640332 203.11328125 8.23632812 C204.06589844 8.75646484 205.01851563 9.27660156 206 9.8125 C212.16341047 13.21315095 218.18591437 16.66246438 223.98461914 20.66088867 C226.80076453 22.53206462 229.74645511 24.12425175 232.71484375 25.73828125 C235.00986013 27.00544414 237.25609467 28.3320445 239.5 29.6875 C240.31726563 30.17863281 241.13453125 30.66976563 241.9765625 31.17578125 C243.66579793 32.19499694 245.35397214 33.21599594 247.03808594 34.24365234 C249.31214662 35.62905105 251.59315696 37.00246465 253.875 38.375 C254.61298828 38.82834717 255.35097656 39.28169434 256.11132812 39.7487793 C256.81451172 40.1694165 257.51769531 40.59005371 258.2421875 41.0234375 C259.18360596 41.59457275 259.18360596 41.59457275 260.14404297 42.17724609 C262.27110731 43.27017864 262.27110731 43.27017864 266 43 C264.50814889 46.80969888 262.39723489 48.45828792 259.0625 50.75 C258.18722656 51.36359375 257.31195313 51.9771875 256.41015625 52.609375 C254 54 254 54 251 54 C251 54.66 251 55.32 251 56 C248.35261084 57.4606285 247.10551666 58 244 58 C244 58.66 244 59.32 244 60 C243.43152344 60.24234375 242.86304688 60.4846875 242.27734375 60.734375 C238.42321804 62.40728432 234.68295531 64.11133441 231.0625 66.25 C228 68 228 68 226 68 C226 68.66 226 69.32 226 70 C225.14019531 70.4125 224.28039062 70.825 223.39453125 71.25 C215.88230377 74.92009587 208.76613473 78.86177333 201.7421875 83.3984375 C199 85 199 85 196.6953125 85.5390625 C196.13585937 85.69117188 195.57640625 85.84328125 195 86 C194.67 86.99 194.34 87.98 194 89 C192.40037942 89.7261295 190.79305899 90.43843991 189.15771484 91.08007812 C184.84783329 92.91755648 180.8595578 95.40196349 176.8125 97.75 C175.4212793 98.55135376 175.4212793 98.55135376 174.00195312 99.36889648 C171.3321385 100.908331 168.66548771 102.45308846 166 104 C165.3198584 104.39396973 164.6397168 104.78793945 163.93896484 105.19384766 C157.63178019 108.84298009 157.63178019 108.84298009 151.39453125 112.609375 C148.68528917 114.18276845 145.99188321 115.09547717 143 116 C143 116.66 143 117.32 143 118 C142.20335937 118.38671875 141.40671875 118.7734375 140.5859375 119.171875 C133.79275849 122.44377494 133.79275849 122.44377494 127.375 126.375 C125 128 125 128 123 128 C122.67 128.66 122.34 129.32 122 130 C121.34 129.67 120.68 129.34 120 129 C120 129.66 120 130.32 120 131 C118.37750059 131.83819158 116.75191503 132.6704116 115.125 133.5 C114.22007812 133.9640625 113.31515625 134.428125 112.3828125 134.90625 C110 136 110 136 108 136 C108 136.66 108 137.32 108 138 C97.90171818 141.79499946 89.64494755 143.58810725 79.359375 139.58203125 C76.18817376 138.1371441 73.08192771 136.62546832 70 135 C70 134.34 70 133.68 70 133 C69.113125 132.71125 68.22625 132.4225 67.3125 132.125 C64.49617576 131.16851252 61.74916844 130.13201054 59 129 C59 128.34 59 127.68 59 127 C58.278125 126.71125 57.55625 126.4225 56.8125 126.125 C54.20833333 125.08333333 51.60416667 124.04166667 49 123 C49 122.34 49 121.68 49 121 C48.11957031 120.73960937 47.23914063 120.47921875 46.33203125 120.2109375 C43.03669278 119.01333501 40.57865284 117.58670074 37.6875 115.625 C32.96487879 112.52618417 28.24303145 110.08426682 23 108 C23 107.34 23 106.68 23 106 C22.28714844 105.73058594 21.57429688 105.46117187 20.83984375 105.18359375 C17.95291746 103.98037688 15.29339441 102.58482837 12.5625 101.0625 C8.74496981 98.95254075 4.92187425 96.90793882 1 95 C1 94.34 1 93.68 1 93 C0.1028125 92.7834375 0.1028125 92.7834375 -0.8125 92.5625 C-2.56150404 92.1127561 -4.28677023 91.57107659 -6 91 C-6 90.34 -6 89.68 -6 89 C-6.53496094 88.90074219 -7.06992188 88.80148437 -7.62109375 88.69921875 C-10.69617123 87.79537824 -13.25467195 86.35799952 -16.0625 84.8125 C-17.20203125 84.18859375 -18.3415625 83.5646875 -19.515625 82.921875 C-21.24039063 81.97054687 -21.24039063 81.97054687 -23 81 C-25.10375191 79.85340536 -27.20788003 78.7075005 -29.3125 77.5625 C-30.87520012 76.70869951 -32.43778119 75.85468083 -34 75 C-34 74.34 -34 73.68 -34 73 C-35.32 73 -36.64 73 -38 73 C-38 72.34 -38 71.68 -38 71 C-38.99 71 -39.98 71 -41 71 C-41 70.34 -41 69.68 -41 69 C-41.71285156 68.73058594 -42.42570312 68.46117187 -43.16015625 68.18359375 C-46.04708254 66.98037688 -48.70660559 65.58482837 -51.4375 64.0625 C-55.25444247 61.95448352 -59.08106636 59.91389782 -63 58 C-65 57 -67 56 -69 55 C-69 54.34 -69 53.68 -69 53 C-70.32 53 -71.64 53 -73 53 C-73.33 52.34 -73.66 51.68 -74 51 C-75.97522846 49.95191959 -77.97481509 48.9479589 -80 48 C-80 47.34 -80 46.68 -80 46 C-80.66 45.67 -81.32 45.34 -82 45 C-81.01 45 -80.02 45 -79 45 C-79 44.34 -79 43.68 -79 43 C-77.6078125 42.319375 -77.6078125 42.319375 -76.1875 41.625 C-72.96078611 40.0578367 -72.96078611 40.0578367 -70 38 C-69.01 38 -68.02 38 -67 38 C-67 37.34 -67 36.68 -67 36 C-65.71086513 35.32845067 -64.41859796 34.66291141 -63.125 34 C-62.40570313 33.62875 -61.68640625 33.2575 -60.9453125 32.875 C-59 32 -59 32 -57 32 C-57 31.34 -57 30.68 -57 30 C-54.35261084 28.5393715 -53.10551666 28 -50 28 C-50 27.34 -50 26.68 -50 26 C-48.71086513 25.32845067 -47.41859796 24.66291141 -46.125 24 C-45.40570313 23.62875 -44.68640625 23.2575 -43.9453125 22.875 C-42 22 -42 22 -40 22 C-40 21.34 -40 20.68 -40 20 C-37.35261084 18.5393715 -36.10551666 18 -33 18 C-33 17.34 -33 16.68 -33 16 C-31.71086513 15.32845067 -30.41859796 14.66291141 -29.125 14 C-28.40570313 13.62875 -27.68640625 13.2575 -26.9453125 12.875 C-25 12 -25 12 -23 12 C-23 11.34 -23 10.68 -23 10 C-22.2265625 9.62488281 -21.453125 9.24976563 -20.65625 8.86328125 C-15.07488141 6.12095039 -9.71363444 3.36636229 -4.62109375 -0.21484375 C-3 -1 -3 -1 0 0 Z " fill="#662079" transform="translate(174,301)"/>
<path d="M0 0 C8.07984556 6.31729294 14.36177208 13.42657695 20 22 C19.34 23.32 18.68 24.64 18 26 C17.01 26 16.02 26 15 26 C15 26.66 15 27.32 15 28 C13.37750059 28.83819158 11.75191503 29.6704116 10.125 30.5 C9.22007812 30.9640625 8.31515625 31.428125 7.3828125 31.90625 C5 33 5 33 3 33 C3 33.66 3 34.32 3 35 C2.2265625 35.37511719 1.453125 35.75023437 0.65625 36.13671875 C-4.67372027 38.7555284 -9.86212155 41.411781 -14.8515625 44.6328125 C-17.65854027 46.41907108 -20.51129621 48.11876546 -23.375 49.8125 C-24.39335937 50.41707031 -25.41171875 51.02164063 -26.4609375 51.64453125 C-29 53 -29 53 -31 53 C-31 53.66 -31 54.32 -31 55 C-31.804375 55.391875 -32.60875 55.78375 -33.4375 56.1875 C-37.04286364 58.02180782 -40.54329315 59.99179656 -44.046875 62.01171875 C-46 63 -46 63 -48 63 C-48 63.66 -48 64.32 -48 65 C-48.58918213 65.28335205 -49.17836426 65.5667041 -49.78540039 65.85864258 C-56.53210153 69.16050012 -62.99251913 72.83447487 -69.4375 76.6875 C-70.41654297 77.26822266 -71.39558594 77.84894531 -72.40429688 78.44726562 C-75.98196017 80.5741926 -79.53633974 82.69089316 -83 85 C-84.32 85 -85.64 85 -87 85 C-92.54183333 75.07625194 -96.35560594 66.55706741 -97 55 C-97.07992187 54.09121094 -97.15984375 53.18242187 -97.2421875 52.24609375 C-97.86621857 39.9306571 -93.72392485 25.79572663 -86.5625 15.875 C-85.98628906 15.06804687 -85.41007813 14.26109375 -84.81640625 13.4296875 C-76.96066512 2.92157786 -68.17063116 -3.12263096 -56 -8 C-55.22527344 -8.34160156 -54.45054687 -8.68320313 -53.65234375 -9.03515625 C-36.13024455 -15.67933849 -14.69745653 -10.50653723 0 0 Z " fill="#9A4E96" transform="translate(307,185)"/>
<path d="M0 0 C1.23694985 0.59822302 2.45218847 1.24296766 3.64453125 1.92578125 C4.32193359 2.31056641 4.99933594 2.69535156 5.69726562 3.09179688 C6.74430664 3.69604492 6.74430664 3.69604492 7.8125 4.3125 C8.49892578 4.70373047 9.18535156 5.09496094 9.89257812 5.49804688 C11.93097077 6.6609142 13.96563492 7.83010439 16 9 C17.33698995 9.76475951 18.67421262 10.52911237 20.01171875 11.29296875 C20.99785156 11.85628906 21.98398437 12.41960937 23 13 C23 13.66 23 14.32 23 15 C23.53625 15.103125 24.0725 15.20625 24.625 15.3125 C27.62502044 16.18092697 30.2379535 17.55620296 33 19 C33 19.66 33 20.32 33 21 C33.55429687 21.10699219 34.10859375 21.21398437 34.6796875 21.32421875 C37.44813583 22.13051768 39.64193033 23.34860072 42.125 24.8125 C42.99382812 25.31394531 43.86265625 25.81539063 44.7578125 26.33203125 C47.10256817 28.07630071 47.9605109 29.30784002 49 32 C47.9171875 32.8353125 47.9171875 32.8353125 46.8125 33.6875 C43.98456738 35.90521116 43.98456738 35.90521116 41.75 38.4375 C38.18973827 41.75501661 34.27834224 43.74372097 30 46 C29.0925 46.556875 28.185 47.11375 27.25 47.6875 C15.06522995 54.79528253 -1.37648498 54.49848564 -14.66015625 51.1171875 C-20.7866919 49.06784341 -26.33583625 46.09083278 -32 43 C-32.79277344 42.60296875 -33.58554688 42.2059375 -34.40234375 41.796875 C-38.77315267 39.54443359 -38.77315267 39.54443359 -39.9375 36.75 C-39.958125 36.1725 -39.97875 35.595 -40 35 C-40.66 35 -41.32 35 -42 35 C-42 34.34 -42 33.68 -42 33 C-42.66 33 -43.32 33 -44 33 C-44 32.34 -44 31.68 -44 31 C-44.99 30.67 -45.98 30.34 -47 30 C-48.1875 27.4375 -48.1875 27.4375 -49 25 C-48.35095703 24.65243652 -47.70191406 24.30487305 -47.03320312 23.94677734 C-38.63989737 19.4150475 -30.44050574 14.58335102 -22.2578125 9.68359375 C-21.23429687 9.07902344 -20.21078125 8.47445312 -19.15625 7.8515625 C-18.23650391 7.30322754 -17.31675781 6.75489258 -16.36914062 6.18994141 C-14 5 -14 5 -11 5 C-11 4.34 -11 3.68 -11 3 C-4.18147081 -1.32714352 -4.18147081 -1.32714352 0 0 Z " fill="#662179" transform="translate(270,245)"/>
<path d="M0 0 C2.31 0 4.62 0 7 0 C6.67 0.99 6.34 1.98 6 3 C8.31 3 10.62 3 13 3 C13 5.31 13 7.62 13 10 C14.98 10 16.96 10 19 10 C18.34 10.33 17.68 10.66 17 11 C17.66 12.32 18.32 13.64 19 15 C19.99 14.67 20.98 14.34 22 14 C21.979375 15.11375 21.95875 16.2275 21.9375 17.375 C21.73619282 20.83215921 21.73619282 20.83215921 23 23 C19.7 23 16.4 23 13 23 C13 23.928125 13 24.85625 13 25.8125 C13 29.875 13 33.9375 13 38 C16.3 38 19.6 38 23 38 C23 42.29 23 46.58 23 51 C19.7 51 16.4 51 13 51 C13 54.63 13 58.26 13 62 C8.71 62 4.42 62 0 62 C0 58.37 0 54.74 0 51 C-5.28 51 -10.56 51 -16 51 C-16 54.63 -16 58.26 -16 62 C-20.29 62 -24.58 62 -29 62 C-27.02 61.505 -27.02 61.505 -25 61 C-25.2165625 60.44570313 -25.433125 59.89140625 -25.65625 59.3203125 C-25.9346875 58.59585938 -26.213125 57.87140625 -26.5 57.125 C-26.7784375 56.40570313 -27.056875 55.68640625 -27.34375 54.9453125 C-28 53 -28 53 -28 51 C-28.78375 50.896875 -29.5675 50.79375 -30.375 50.6875 C-33 50 -33 50 -35 47 C-37.05925139 46.27617533 -37.05925139 46.27617533 -39 46 C-39 43.36 -39 40.72 -39 38 C-35.7 38 -32.4 38 -29 38 C-29 37.34 -29 36.68 -29 36 C-27.35 35.34 -25.7 34.68 -24 34 C-24 31.03 -24 28.06 -24 25 C-20 29.75 -20 29.75 -20 32 C-19.34 32 -18.68 32 -18 32 C-16 35 -16 35 -16 38 C-10.72 38 -5.44 38 0 38 C0 33.05 0 28.1 0 23 C-1.65 22.67 -3.3 22.34 -5 22 C-5.495 20.02 -5.495 20.02 -6 18 C-10.65052872 17.73067479 -10.65052872 17.73067479 -15 19 C-15 18.34 -15 17.68 -15 17 C-17.97 17 -20.94 17 -24 17 C-24.19466332 15.20909747 -24.38051213 13.41723495 -24.5625 11.625 C-24.66691406 10.62726563 -24.77132813 9.62953125 -24.87890625 8.6015625 C-25 6 -25 6 -24 4 C-21.69 4 -19.38 4 -17 4 C-17.04125 4.94875 -17.0825 5.8975 -17.125 6.875 C-17.34973818 10.10244856 -17.34973818 10.10244856 -15 12 C-12.93221967 12.42455791 -12.93221967 12.42455791 -10.625 12.5625 C-8.24480445 12.75753275 -6.14036915 12.95822044 -3.84765625 13.640625 C-2.93306641 13.81851563 -2.93306641 13.81851563 -2 14 C0.23343204 12.14944202 1.70191542 10.59616917 3 8 C2.01 8.33 1.02 8.66 0 9 C0 6.03 0 3.06 0 0 Z M7 28 C7.33 28.99 7.66 29.98 8 31 C8 30.01 8 29.02 8 28 C7.67 28 7.34 28 7 28 Z " fill="#EAE8EA" transform="translate(386,213)"/>
<path d="M0 0 C1.32 0 2.64 0 4 0 C5.60725635 3.21451269 5.05748185 6.43612536 5 10 C7.97 10 10.94 10 14 10 C14.33 11.65 14.66 13.3 15 15 C21.93 15.495 21.93 15.495 29 16 C29 20.95 29 25.9 29 31 C23.72 31 18.44 31 13 31 C12.505 24.565 12.505 24.565 12 18 C11.01 18.33 10.02 18.66 9 19 C9.66 20.98 10.32 22.96 11 25 C10.34 25 9.68 25 9 25 C7.375 23 7.375 23 6 21 C5.938125 21.94875 5.87625 22.8975 5.8125 23.875 C5.544375 24.90625 5.27625 25.9375 5 27 C2.4375 28.375 2.4375 28.375 0 29 C-0.18451025 19.58997722 -0.18451025 19.58997722 1 15 C-0.65 14.67 -2.3 14.34 -4 14 C-4.33 14.66 -4.66 15.32 -5 16 C-6.65 16 -8.3 16 -10 16 C-10 14.02 -10 12.04 -10 10 C-8.68 10 -7.36 10 -6 10 C-5.67 7.69 -5.34 5.38 -5 3 C-3.35 3 -1.7 3 0 3 C0 2.01 0 1.02 0 0 Z " fill="#E6E4E6" transform="translate(357,220)"/>
<path d="M0 0 C0.66 0 1.32 0 2 0 C2 4.29 2 8.58 2 13 C-1.3 13 -4.6 13 -8 13 C-8 16.63 -8 20.26 -8 24 C-12.29 24 -16.58 24 -21 24 C-21 20.37 -21 16.74 -21 13 C-22.98 13 -24.96 13 -27 13 C-27 10.36 -27 7.72 -27 5 C-24.03 5 -21.06 5 -18 5 C-18 7.97 -18 10.94 -18 14 C-15.36 14 -12.72 14 -10 14 C-10 11.03 -10 8.06 -10 5 C-7.03 5 -4.06 5 -1 5 C-0.67 3.35 -0.34 1.7 0 0 Z " fill="#F8F8F8" transform="translate(407,251)"/>
<path d="M0 0 C5.28 0 10.56 0 16 0 C16 4.95 16 9.9 16 15 C10.72 15 5.44 15 0 15 C0 10.05 0 5.1 0 0 Z " fill="#742F7B" transform="translate(370,236)"/>
<path d="M0 0 C2.31 0 4.62 0 7 0 C6.67 1.65 6.34 3.3 6 5 C8.97 5 11.94 5 15 5 C15 7.97 15 10.94 15 14 C17.31 14 19.62 14 22 14 C22.33 17.3 22.66 20.6 23 24 C18.71 24 14.42 24 10 24 C11.32 23.67 12.64 23.34 14 23 C13.7834375 22.44570313 13.566875 21.89140625 13.34375 21.3203125 C13.0653125 20.59585937 12.786875 19.87140625 12.5 19.125 C12.2215625 18.40570313 11.943125 17.68640625 11.65625 16.9453125 C11 15 11 15 11 13 C10.21625 12.896875 9.4325 12.79375 8.625 12.6875 C6 12 6 12 4 9 C1.94074861 8.27617533 1.94074861 8.27617533 0 8 C0 5.36 0 2.72 0 0 Z " fill="#E4E1E4" transform="translate(347,251)"/>
<path d="M0 0 C2.31 0 4.62 0 7 0 C6.67 0.99 6.34 1.98 6 3 C7.98 3 9.96 3 12 3 C12 3.66 12 4.32 12 5 C9.69 5.66 7.38 6.32 5 7 C7.07553648 7.5534764 8.84365964 8 11 8 C11 10.97 11 13.94 11 17 C5.25 18.125 5.25 18.125 3 17 C2.67 16.01 2.34 15.02 2 14 C0.02 14.99 0.02 14.99 -2 16 C-2 14 -2 14 -0.0625 12 C0.618125 11.34 1.29875 10.68 2 10 C2.33 9.34 2.66 8.68 3 8 C2.01 8.33 1.02 8.66 0 9 C0 6.03 0 3.06 0 0 Z " fill="#E7E5E7" transform="translate(386,213)"/>
<path d="M0 0 C2.97 0 5.94 0 9 0 C9.33 1.65 9.66 3.3 10 5 C9.34 5 8.68 5 8 5 C7.34 6.32 6.68 7.64 6 9 C5.34 9 4.68 9 4 9 C4.66 10.98 5.32 12.96 6 15 C5.34 15 4.68 15 4 15 C2.375 13 2.375 13 1 11 C0.938125 11.94875 0.87625 12.8975 0.8125 13.875 C0.544375 14.90625 0.27625 15.9375 0 17 C-2.5625 18.375 -2.5625 18.375 -5 19 C-5.05399736 17.54207116 -5.09279177 16.08357288 -5.125 14.625 C-5.15980469 13.40683594 -5.15980469 13.40683594 -5.1953125 12.1640625 C-5 10 -5 10 -3 8 C-2.34 7.67 -1.68 7.34 -1 7 C-0.59270772 4.67843403 -0.25561323 2.3431213 0 0 Z " fill="#E5E2E5" transform="translate(362,230)"/>
<path d="M0 0 C2.97 0 5.94 0 9 0 C9.07654536 4.51617599 9.10228696 8.59085217 8 13 C7.67 11.68 7.34 10.36 7 9 C4.69 9 2.38 9 0 9 C0 6.03 0 3.06 0 0 Z " fill="#FEFEFE" transform="translate(362,256)"/>
<path d="M0 0 C2.31 0 4.62 0 7 0 C7.33 3.3 7.66 6.6 8 10 C3.71 10 -0.58 10 -5 10 C-5 9.67 -5 9.34 -5 9 C-3.35 9 -1.7 9 0 9 C0 6.03 0 3.06 0 0 Z " fill="#E3E1E3" transform="translate(362,265)"/>
<path d="M0 0 C0.33 0 0.66 0 1 0 C1 2.31 1 4.62 1 7 C2.98 7 4.96 7 7 7 C6.01 7.495 6.01 7.495 5 8 C5.66 9.98 6.32 11.96 7 14 C3.63458162 15.08174162 2.70152678 14.92538169 -1 14 C-1 11.03 -1 8.06 -1 5 C-2.98 5.33 -4.96 5.66 -7 6 C-7 5.34 -7 4.68 -7 4 C-4 2 -4 2 0 2 C0 1.34 0 0.68 0 0 Z " fill="#F3F2F3" transform="translate(398,216)"/>
<path d="M0 0 C2.97 0 5.94 0 9 0 C9 2.97 9 5.94 9 9 C8.01 9.33 7.02 9.66 6 10 C6 9.34 6 8.68 6 8 C4.02 8 2.04 8 0 8 C0 5.36 0 2.72 0 0 Z " fill="#FFFFFF" transform="translate(380,256)"/>
<path d="M0 0 C2.64 0 5.28 0 8 0 C9.125 5.625 9.125 5.625 8 9 C5.36 9 2.72 9 0 9 C0 6.03 0 3.06 0 0 Z " fill="#FFFFFF" transform="translate(389,265)"/>
<path d="M0 0 C2.64 0 5.28 0 8 0 C8 2.97 8 5.94 8 9 C5.36 9 2.72 9 0 9 C0 6.03 0 3.06 0 0 Z " fill="#E7E7E7" transform="translate(389,256)"/>
<path d="M0 0 C2.97 0 5.94 0 9 0 C9 2.64 9 5.28 9 8 C6.03 8 3.06 8 0 8 C0 5.36 0 2.72 0 0 Z " fill="#E7E7E7" transform="translate(371,256)"/>
<path d="M0 0 C2.64 0 5.28 0 8 0 C9.15941038 3.47823115 8.70820884 5.45895578 8 9 C5.36 9 2.72 9 0 9 C0 6.03 0 3.06 0 0 Z " fill="#FEFEFE" transform="translate(389,247)"/>
<path d="M0 0 C0 2.97 0 5.94 0 9 C-2.97 9 -5.94 9 -9 9 C-8.67 7.35 -8.34 5.7 -8 4 C-7.01 4 -6.02 4 -5 4 C-5 3.34 -5 2.68 -5 2 C-2 0 -2 0 0 0 Z " fill="#FDFDFD" transform="translate(362,247)"/>
<path d="M0 0 C0.66 0 1.32 0 2 0 C1.979375 1.11375 1.95875 2.2275 1.9375 3.375 C1.73619282 6.83215921 1.73619282 6.83215921 3 9 C-2.53846154 9.36923077 -2.53846154 9.36923077 -4.875 7.5 C-5.24625 7.005 -5.6175 6.51 -6 6 C-6.99 6.66 -7.98 7.32 -9 8 C-9 6.35 -9 4.7 -9 3 C-7.88625 3.061875 -6.7725 3.12375 -5.625 3.1875 C-4.42875 3.125625 -3.2325 3.06375 -2 3 C-1.34 2.01 -0.68 1.02 0 0 Z " fill="#E8E8E8" transform="translate(406,227)"/>
<path d="M0 0 C2.31 0 4.62 0 7 0 C6.67 2.64 6.34 5.28 6 8 C4.02 8 2.04 8 0 8 C0 5.36 0 2.72 0 0 Z " fill="#E8E8E8" transform="translate(347,251)"/>
<path d="M0 0 C2.64 0 5.28 0 8 0 C8 2.31 8 4.62 8 7 C5.36 6.67 2.72 6.34 0 6 C0 4.02 0 2.04 0 0 Z " fill="#FBFBFB" transform="translate(389,230)"/>
<path d="M0 0 C2.97 0 5.94 0 9 0 C9 1.65 9 3.3 9 5 C6.03 5 3.06 5 0 5 C0 3.35 0 1.7 0 0 Z " fill="#FCFCFC" transform="translate(371,251)"/>
<path d="M0 0 C0.66 0 1.32 0 2 0 C2 2.97 2 5.94 2 9 C4.64 9 7.28 9 10 9 C10.33 8.01 10.66 7.02 11 6 C11.33 7.32 11.66 8.64 12 10 C7.71 10 3.42 10 -1 10 C-1.09765625 3.06640625 -1.09765625 3.06640625 -1 1 C-0.67 0.67 -0.34 0.34 0 0 Z " fill="#DED9DE" transform="translate(387,265)"/>
<path d="M0 0 C2.97 0 5.94 0 9 0 C9 2.31 9 4.62 9 7 C8.01 7.495 8.01 7.495 7 8 C5.82287058 6.82287058 4.65286632 5.63840242 3.5 4.4375 C2.04064065 2.89699698 2.04064065 2.89699698 0 2 C0 1.34 0 0.68 0 0 Z " fill="#F8F8F8" transform="translate(353,230)"/>
<path d="M0 0 C4 4.75 4 4.75 4 7 C4.66 7 5.32 7 6 7 C6.33 8.32 6.66 9.64 7 11 C4.69 10.34 2.38 9.68 0 9 C0 6.03 0 3.06 0 0 Z " fill="#FBFBFB" transform="translate(362,238)"/>
<path d="M0 0 C0.99 0.33 1.98 0.66 3 1 C3 1.66 3 2.32 3 3 C1.00669158 4.34331654 -0.99384866 5.67594012 -3 7 C-3.66 7.99 -4.32 8.98 -5 10 C-5 7.69 -5 5.38 -5 3 C-3.35 3 -1.7 3 0 3 C0 2.01 0 1.02 0 0 Z " fill="#EDEAED" transform="translate(357,220)"/>
<path d="M0 0 C0.66 0 1.32 0 2 0 C2 4.29 2 8.58 2 13 C1.67 13 1.34 13 1 13 C1 10.36 1 7.72 1 5 C0.34 5 -0.32 5 -1 5 C-0.67 3.35 -0.34 1.7 0 0 Z " fill="#FFFFFF" transform="translate(407,251)"/>
<path d="M0 0 C1.98 0 3.96 0 6 0 C6 0.99 6 1.98 6 3 C4.02 3 2.04 3 0 3 C0 2.01 0 1.02 0 0 Z " fill="#F6F4F6" transform="translate(347,256)"/>
<path d="M0 0 C0.66 0 1.32 0 2 0 C2 2.97 2 5.94 2 9 C0.4375 7.3125 0.4375 7.3125 -1 5 C-0.6875 2.25 -0.6875 2.25 0 0 Z " fill="#F6F5F6" transform="translate(360,265)"/>
<path d="M0 0 C0.99 1.32 1.98 2.64 3 4 C1.02 4 -0.96 4 -3 4 C-3.33 3.01 -3.66 2.02 -4 1 C-2.68 0.67 -1.36 0.34 0 0 Z " fill="#E2DCE2" transform="translate(406,232)"/>
<path d="" fill="#D7CAD7" transform="translate(0,0)"/>
<path d="" fill="#D7CAD7" transform="translate(0,0)"/>
<path d="" fill="#D7CAD7" transform="translate(0,0)"/>
<path d="" fill="#D7CAD7" transform="translate(0,0)"/>
<path d="" fill="#D7CAD7" transform="translate(0,0)"/>
</svg>
