<?xml version="1.0" encoding="UTF-8"?>
<svg xmlns="http://www.w3.org/2000/svg" xmlns:xlink="http://www.w3.org/1999/xlink" width="128px" height="128px" viewBox="0 0 128 128" version="1.1">
<g id="surface1">
<path style=" stroke:none;fill-rule:nonzero;fill:rgb(50.196081%,20.784314%,53.333336%);fill-opacity:1;" d="M 69.070312 9.511719 C 69.394531 9.707031 69.394531 9.707031 69.726562 9.90625 C 72.101562 11.335938 74.433594 12.851562 76.738281 14.421875 C 80.3125 16.851562 83.949219 19.160156 87.574219 21.484375 C 88.777344 22.261719 89.972656 23.042969 91.167969 23.824219 C 92.796875 24.886719 94.433594 25.933594 96.066406 26.984375 C 98.011719 28.234375 99.945312 29.503906 101.875 30.785156 C 103.15625 31.632812 104.441406 32.429688 105.78125 33.15625 C 105.78125 33.335938 105.78125 33.515625 105.78125 33.699219 C 105.941406 33.699219 106.101562 33.699219 106.265625 33.699219 C 106.664062 34.214844 106.664062 34.214844 107.109375 34.921875 C 107.257812 35.148438 107.402344 35.375 107.554688 35.609375 C 108.472656 37.460938 108.53125 39.4375 108.585938 41.507812 C 108.59375 41.800781 108.605469 42.09375 108.613281 42.394531 C 108.726562 46.4375 108.722656 50.484375 108.726562 54.527344 C 108.726562 55.214844 108.730469 55.902344 108.730469 56.59375 C 108.734375 58.757812 108.734375 60.925781 108.738281 63.09375 C 108.738281 65.574219 108.742188 68.054688 108.75 70.539062 C 108.753906 72.472656 108.757812 74.40625 108.757812 76.34375 C 108.757812 77.492188 108.757812 78.640625 108.761719 79.789062 C 108.765625 80.867188 108.769531 81.945312 108.765625 83.023438 C 108.765625 83.417969 108.765625 83.808594 108.769531 84.203125 C 108.789062 87.421875 108.492188 90.414062 106.988281 93.214844 C 106.75 93.304688 106.511719 93.394531 106.265625 93.484375 C 106.195312 93.648438 106.125 93.8125 106.050781 93.984375 C 105.691406 94.769531 105.234375 95.09375 104.589844 95.59375 C 104.378906 95.757812 104.164062 95.925781 103.949219 96.097656 C 103.367188 96.476562 103.367188 96.476562 102.640625 96.476562 C 102.640625 96.65625 102.640625 96.835938 102.640625 97.019531 C 102.003906 97.417969 101.699219 97.5625 100.949219 97.5625 C 100.949219 97.742188 100.949219 97.921875 100.949219 98.105469 C 100.8125 98.171875 100.675781 98.238281 100.535156 98.304688 C 99.605469 98.761719 98.699219 99.222656 97.828125 99.804688 C 97.085938 100.28125 97.085938 100.28125 96.605469 100.28125 C 96.605469 100.460938 96.605469 100.640625 96.605469 100.824219 C 96.394531 100.9375 96.1875 101.046875 95.972656 101.164062 C 94.160156 102.160156 92.441406 103.230469 90.746094 104.464844 C 90.082031 104.898438 90.082031 104.898438 89.527344 105.046875 C 89.390625 105.089844 89.257812 105.128906 89.117188 105.171875 C 89.039062 105.441406 88.957031 105.710938 88.875 105.988281 C 88.488281 106.183594 88.101562 106.378906 87.707031 106.550781 C 86.664062 107.050781 85.703125 107.726562 84.722656 108.363281 C 84.5 108.511719 84.277344 108.65625 84.046875 108.804688 C 83.402344 109.222656 82.757812 109.644531 82.113281 110.0625 C 81.949219 110.171875 81.785156 110.277344 81.617188 110.386719 C 80.09375 111.378906 80.09375 111.378906 78.585938 112.402344 C 77.929688 112.832031 77.28125 113.078125 76.558594 113.324219 C 76.558594 113.503906 76.558594 113.683594 76.558594 113.867188 C 76.367188 113.972656 76.171875 114.078125 75.976562 114.1875 C 74.335938 115.074219 74.335938 115.074219 72.785156 116.144531 C 72.210938 116.585938 72.210938 116.585938 71.726562 116.585938 C 71.648438 116.765625 71.570312 116.945312 71.488281 117.128906 C 71.328125 117.039062 71.167969 116.949219 71.003906 116.859375 C 71.003906 117.039062 71.003906 117.214844 71.003906 117.402344 C 70.613281 117.628906 70.21875 117.855469 69.828125 118.082031 C 69.5 118.269531 69.5 118.269531 69.164062 118.460938 C 68.589844 118.761719 68.589844 118.761719 68.105469 118.761719 C 68.105469 118.9375 68.105469 119.117188 68.105469 119.304688 C 65.667969 120.335938 63.671875 120.820312 61.1875 119.734375 C 60.421875 119.339844 59.671875 118.929688 58.929688 118.488281 C 58.929688 118.308594 58.929688 118.128906 58.929688 117.945312 C 58.714844 117.867188 58.5 117.789062 58.277344 117.707031 C 57.597656 117.445312 56.9375 117.164062 56.273438 116.859375 C 56.273438 116.679688 56.273438 116.5 56.273438 116.3125 C 56.097656 116.234375 55.921875 116.15625 55.742188 116.078125 C 55.113281 115.792969 54.484375 115.511719 53.855469 115.226562 C 53.855469 115.046875 53.855469 114.867188 53.855469 114.683594 C 53.539062 114.578125 53.539062 114.578125 53.210938 114.46875 C 52.417969 114.144531 51.824219 113.757812 51.125 113.222656 C 49.984375 112.378906 48.84375 111.71875 47.578125 111.152344 C 47.578125 110.972656 47.578125 110.792969 47.578125 110.605469 C 47.320312 110.496094 47.320312 110.496094 47.054688 110.386719 C 46.359375 110.058594 45.714844 109.679688 45.054688 109.265625 C 44.132812 108.691406 43.210938 108.136719 42.265625 107.617188 C 42.265625 107.4375 42.265625 107.257812 42.265625 107.074219 C 42.121094 107.035156 41.976562 106.996094 41.828125 106.957031 C 41.402344 106.832031 40.988281 106.6875 40.574219 106.53125 C 40.574219 106.351562 40.574219 106.171875 40.574219 105.988281 C 40.378906 105.945312 40.378906 105.945312 40.183594 105.90625 C 39.4375 105.660156 38.820312 105.269531 38.144531 104.847656 C 37.730469 104.59375 37.730469 104.59375 37.308594 104.335938 C 36.894531 104.078125 36.894531 104.078125 36.46875 103.8125 C 35.960938 103.5 35.453125 103.191406 34.945312 102.878906 C 34.566406 102.648438 34.1875 102.414062 33.8125 102.183594 C 33.8125 102.003906 33.8125 101.824219 33.8125 101.640625 C 33.492188 101.640625 33.171875 101.640625 32.84375 101.640625 C 32.84375 101.460938 32.84375 101.28125 32.84375 101.09375 C 32.605469 101.09375 32.367188 101.09375 32.121094 101.09375 C 32.121094 100.917969 32.121094 100.738281 32.121094 100.550781 C 31.863281 100.441406 31.863281 100.441406 31.597656 100.332031 C 30.902344 100.003906 30.257812 99.625 29.601562 99.210938 C 28.679688 98.636719 27.753906 98.082031 26.808594 97.5625 C 26.324219 97.289062 25.839844 97.019531 25.359375 96.746094 C 25.359375 96.566406 25.359375 96.386719 25.359375 96.203125 C 25.039062 96.203125 24.722656 96.203125 24.390625 96.203125 C 24.3125 96.023438 24.234375 95.84375 24.152344 95.660156 C 23.675781 95.375 23.191406 95.101562 22.703125 94.84375 C 22.703125 94.664062 22.703125 94.484375 22.703125 94.300781 C 22.558594 94.230469 22.414062 94.15625 22.265625 94.082031 C 21.378906 93.539062 20.953125 92.949219 20.617188 91.890625 C 20.53125 91.621094 20.53125 91.621094 20.445312 91.347656 C 20.082031 90.007812 20.011719 88.730469 20.011719 87.332031 C 20.011719 87.125 20.011719 86.917969 20.007812 86.707031 C 20.007812 86.015625 20.007812 85.320312 20.007812 84.628906 C 20.003906 84.132812 20.003906 83.636719 20.003906 83.136719 C 20 81.789062 19.996094 80.441406 19.996094 79.089844 C 19.996094 78.246094 19.996094 77.402344 19.996094 76.558594 C 19.992188 73.921875 19.988281 71.28125 19.988281 68.640625 C 19.988281 65.59375 19.980469 62.550781 19.976562 59.503906 C 19.96875 57.148438 19.96875 54.792969 19.96875 52.4375 C 19.96875 51.03125 19.964844 49.625 19.960938 48.21875 C 19.957031 46.894531 19.957031 45.574219 19.957031 44.25 C 19.960938 43.765625 19.957031 43.28125 19.957031 42.796875 C 19.933594 38.292969 19.933594 38.292969 20.769531 36.144531 C 20.851562 35.921875 20.929688 35.695312 21.011719 35.464844 C 22.074219 33.390625 23.886719 32.480469 25.691406 31.375 C 26.863281 30.644531 28.011719 29.875 29.164062 29.113281 C 31.191406 27.777344 33.230469 26.460938 35.273438 25.152344 C 36.910156 24.101562 38.539062 23.03125 40.167969 21.960938 C 42.117188 20.679688 44.074219 19.410156 46.046875 18.171875 C 47.847656 17.039062 49.628906 15.875 51.410156 14.710938 C 51.789062 14.464844 51.789062 14.464844 52.171875 14.214844 C 53.492188 13.351562 54.777344 12.453125 56.042969 11.488281 C 56.648438 11.042969 57.277344 10.675781 57.933594 10.328125 C 58.917969 9.792969 59.867188 9.222656 60.816406 8.613281 C 63.777344 6.792969 66.296875 7.773438 69.070312 9.511719 Z M 59.894531 32.613281 C 59.425781 32.671875 58.957031 32.734375 58.492188 32.789062 C 57.722656 32.925781 57.019531 33.207031 56.289062 33.503906 C 55.804688 33.691406 55.324219 33.839844 54.824219 33.96875 C 54.824219 34.148438 54.824219 34.328125 54.824219 34.515625 C 54.503906 34.558594 54.503906 34.558594 54.175781 34.605469 C 52.078125 35.078125 49.925781 36.78125 48.300781 38.320312 C 48.300781 38.496094 48.300781 38.675781 48.300781 38.863281 C 48.0625 38.863281 47.824219 38.863281 47.578125 38.863281 C 47.074219 39.355469 47.074219 39.355469 46.898438 39.949219 C 46.515625 40.675781 46.105469 40.785156 45.402344 41.035156 C 45.402344 41.214844 45.402344 41.394531 45.402344 41.578125 C 45.261719 41.648438 45.117188 41.71875 44.96875 41.792969 C 44.398438 42.148438 44.074219 42.5 43.652344 43.058594 C 43.527344 43.21875 43.402344 43.382812 43.273438 43.550781 C 42.921875 44.042969 42.921875 44.042969 42.988281 44.839844 C 42.628906 44.976562 42.628906 44.976562 42.265625 45.113281 C 41.78125 45.835938 41.296875 46.636719 41.296875 47.558594 C 41.140625 47.558594 40.980469 47.558594 40.816406 47.558594 C 37.199219 55.136719 35.566406 63.890625 37.722656 72.367188 C 39.203125 77.847656 41.773438 83.675781 45.886719 87.234375 C 46.15625 87.546875 46.15625 87.546875 46.429688 87.863281 C 48.207031 89.816406 50.269531 91.269531 52.40625 92.671875 C 52.601562 92.800781 52.800781 92.929688 53 93.0625 C 59.214844 96.863281 67.234375 97.019531 73.902344 94.84375 C 78.019531 93.425781 81.535156 90.953125 84.769531 87.777344 C 84.96875 87.609375 85.167969 87.4375 85.375 87.261719 C 86.046875 86.628906 86.5625 85.949219 87.109375 85.179688 C 87.292969 84.921875 87.480469 84.664062 87.671875 84.398438 C 88.375 83.480469 88.375 83.480469 88.648438 82.359375 C 88.304688 81.609375 87.808594 81.367188 87.160156 80.984375 C 86.703125 80.714844 86.703125 80.714844 85.960938 80.152344 C 85.277344 79.621094 85.277344 79.621094 84.601562 79.265625 C 83.675781 78.738281 82.820312 78.128906 81.945312 77.503906 C 80.421875 76.417969 78.882812 75.402344 77.28125 74.460938 C 76.949219 74.8125 76.628906 75.175781 76.316406 75.550781 C 76.316406 75.730469 76.316406 75.910156 76.316406 76.09375 C 76.078125 76.183594 75.839844 76.273438 75.59375 76.363281 C 75.59375 76.542969 75.59375 76.722656 75.59375 76.910156 C 75.457031 76.984375 75.316406 77.0625 75.175781 77.140625 C 74.023438 77.796875 72.890625 78.507812 71.789062 79.269531 C 68.847656 81.203125 64.878906 81.121094 61.667969 80.203125 C 59.953125 79.554688 58.347656 78.597656 56.808594 77.527344 C 56.304688 77.136719 56.304688 77.136719 55.789062 77.179688 C 55.707031 76.820312 55.628906 76.464844 55.546875 76.09375 C 55.386719 76.09375 55.226562 76.09375 55.0625 76.09375 C 55.0625 75.914062 55.0625 75.734375 55.0625 75.550781 C 54.90625 75.550781 54.746094 75.550781 54.582031 75.550781 C 54.582031 75.371094 54.582031 75.191406 54.582031 75.007812 C 54.339844 74.730469 54.101562 74.460938 53.855469 74.191406 C 51.65625 70.59375 50.324219 66.109375 51.042969 61.710938 C 51.527344 59.152344 52.121094 56.710938 53.496094 54.554688 C 53.636719 54.332031 53.777344 54.105469 53.925781 53.871094 C 54.339844 53.265625 54.339844 53.265625 54.753906 52.8125 C 55.121094 52.46875 55.121094 52.46875 55.0625 51.90625 C 55.195312 51.84375 55.324219 51.785156 55.457031 51.71875 C 56.066406 51.375 56.066406 51.375 56.617188 50.75 C 57.78125 49.632812 59.21875 49.027344 60.617188 48.375 C 60.902344 48.234375 60.902344 48.234375 61.191406 48.089844 C 64.265625 46.785156 68.265625 47.253906 71.246094 48.644531 C 74.554688 50.371094 76.992188 53.136719 78.972656 56.527344 C 80.019531 56.097656 80.96875 55.515625 81.933594 54.894531 C 82.097656 54.789062 82.265625 54.683594 82.4375 54.574219 C 83.902344 53.636719 85.355469 52.679688 86.800781 51.710938 C 87.046875 51.546875 87.046875 51.546875 87.292969 51.382812 C 87.4375 51.285156 87.578125 51.191406 87.726562 51.09375 C 88.179688 50.800781 88.644531 50.535156 89.117188 50.277344 C 89.117188 50.097656 89.117188 49.917969 89.117188 49.734375 C 89.261719 49.691406 89.40625 49.652344 89.554688 49.613281 C 89.976562 49.492188 90.394531 49.34375 90.808594 49.1875 C 90.675781 48.101562 90.417969 47.511719 89.796875 46.675781 C 89.1875 45.835938 88.636719 44.992188 88.121094 44.078125 C 87.578125 43.140625 87.03125 42.511719 86.21875 41.851562 C 86.058594 41.582031 85.898438 41.3125 85.734375 41.035156 C 85.496094 40.855469 85.257812 40.675781 85.011719 40.492188 C 84.871094 40.328125 84.730469 40.167969 84.589844 40 C 83.394531 38.632812 83.394531 38.632812 81.871094 38.046875 C 81.871094 37.867188 81.871094 37.6875 81.871094 37.503906 C 81.609375 37.324219 81.34375 37.144531 81.070312 36.960938 C 80.921875 36.859375 80.773438 36.757812 80.621094 36.652344 C 80.152344 36.355469 80.152344 36.355469 79.457031 36.417969 C 79.457031 36.238281 79.457031 36.058594 79.457031 35.871094 C 76.839844 34.371094 74.363281 33.277344 71.488281 32.613281 C 71.261719 32.554688 71.039062 32.496094 70.808594 32.4375 C 67.453125 31.597656 63.132812 31.117188 59.894531 32.613281 Z M 86.21875 57.886719 C 86.21875 58.511719 86.21875 59.140625 86.21875 59.789062 C 86.539062 59.789062 86.855469 59.789062 87.183594 59.789062 C 87.265625 59.519531 87.34375 59.25 87.425781 58.972656 C 87.984375 58.972656 88.542969 58.972656 89.117188 58.972656 C 89.0625 59.226562 89.007812 59.476562 88.949219 59.738281 C 88.792969 60.578125 88.792969 60.578125 89.167969 61.054688 C 89.695312 61.496094 90.019531 61.542969 90.671875 61.589844 C 91.246094 61.632812 91.734375 61.675781 92.285156 61.871094 C 92.507812 61.917969 92.507812 61.917969 92.738281 61.960938 C 93.417969 61.355469 93.417969 61.355469 93.945312 60.601562 C 93.945312 60.421875 93.945312 60.246094 93.945312 60.058594 C 93.707031 60.148438 93.46875 60.238281 93.222656 60.332031 C 92.601562 60.394531 91.988281 60.445312 91.367188 60.484375 C 91.195312 60.496094 91.027344 60.507812 90.851562 60.519531 C 90.433594 60.546875 90.015625 60.574219 89.601562 60.601562 C 89.519531 59.707031 89.441406 58.808594 89.359375 57.886719 C 88.324219 57.886719 87.285156 57.886719 86.21875 57.886719 Z M 94.914062 57.886719 C 94.675781 58.289062 94.675781 58.289062 94.429688 58.699219 C 94.511719 58.789062 94.589844 58.878906 94.671875 58.972656 C 95.238281 58.894531 95.800781 58.804688 96.363281 58.699219 C 96.363281 58.429688 96.363281 58.164062 96.363281 57.886719 C 95.65625 57.816406 95.65625 57.816406 94.914062 57.886719 Z M 83.804688 60.601562 C 83.804688 61.230469 83.804688 61.859375 83.804688 62.503906 C 84.121094 62.503906 84.441406 62.503906 84.769531 62.503906 C 84.929688 61.96875 85.089844 61.429688 85.253906 60.875 C 84.996094 60.523438 84.996094 60.523438 84.390625 60.585938 C 84.199219 60.589844 84.003906 60.597656 83.804688 60.601562 Z M 97.328125 60.875 C 97.414062 61.410156 97.414062 61.410156 97.570312 61.960938 C 97.730469 62.050781 97.886719 62.140625 98.054688 62.234375 C 98.054688 62.054688 98.054688 61.875 98.054688 61.691406 C 98.210938 61.691406 98.371094 61.691406 98.535156 61.691406 C 98.457031 62.316406 98.375 62.945312 98.292969 63.59375 C 98.453125 63.503906 98.613281 63.414062 98.777344 63.320312 C 98.777344 62.511719 98.777344 61.707031 98.777344 60.875 C 97.871094 60.496094 97.871094 60.496094 97.328125 60.875 Z M 90.082031 62.503906 C 89.589844 63.269531 89.589844 63.269531 89.359375 64.136719 C 90.316406 64.136719 91.269531 64.136719 92.257812 64.136719 C 92.097656 63.6875 91.9375 63.238281 91.773438 62.777344 C 91.214844 62.6875 90.65625 62.597656 90.082031 62.503906 Z M 85.253906 63.59375 C 85.253906 63.773438 85.253906 63.949219 85.253906 64.136719 C 85.570312 64.136719 85.890625 64.136719 86.21875 64.136719 C 86.296875 64.496094 86.378906 64.851562 86.460938 65.222656 C 86.460938 65.042969 86.460938 64.863281 86.460938 64.679688 C 86.621094 64.589844 86.777344 64.5 86.945312 64.40625 C 86.613281 63.851562 86.613281 63.851562 86.21875 63.320312 C 85.71875 63.28125 85.71875 63.28125 85.253906 63.59375 Z M 88.390625 64.949219 C 88.632812 65.757812 88.871094 66.566406 89.117188 67.398438 C 89.195312 67.398438 89.277344 67.398438 89.359375 67.398438 C 89.359375 66.410156 89.359375 65.425781 89.359375 64.40625 C 89.003906 64.382812 89.003906 64.382812 88.390625 64.949219 Z M 86.21875 65.496094 C 86.460938 66.039062 86.460938 66.039062 86.460938 66.039062 Z M 94.914062 65.496094 C 94.992188 65.765625 95.074219 66.03125 95.15625 66.308594 C 95.15625 66.039062 95.15625 65.773438 95.15625 65.496094 C 95.074219 65.496094 94.996094 65.496094 94.914062 65.496094 Z M 95.878906 65.496094 C 95.878906 65.941406 95.878906 66.390625 95.878906 66.851562 C 96.039062 66.675781 96.199219 66.496094 96.363281 66.308594 C 96.28125 66.039062 96.203125 65.773438 96.121094 65.496094 C 96.042969 65.496094 95.960938 65.496094 95.878906 65.496094 Z M 86.21875 66.308594 C 86.460938 66.851562 86.460938 66.851562 86.460938 66.851562 Z M 83.804688 70.386719 C 83.804688 70.835938 83.804688 71.285156 83.804688 71.746094 C 84.363281 71.746094 84.917969 71.746094 85.496094 71.746094 C 85.203125 71.046875 85.203125 71.046875 84.769531 70.386719 C 84.449219 70.386719 84.132812 70.386719 83.804688 70.386719 Z M 86.21875 71.746094 C 86.21875 72.640625 86.21875 73.539062 86.21875 74.460938 C 86.539062 74.460938 86.855469 74.460938 87.183594 74.460938 C 87.113281 74.117188 87.046875 73.769531 86.972656 73.410156 C 86.933594 73.214844 86.894531 73.019531 86.855469 72.816406 C 86.726562 72.234375 86.726562 72.234375 86.21875 71.746094 Z M 86.21875 71.746094 "/>
<path style=" stroke:none;fill-rule:nonzero;fill:rgb(60.392159%,30.19608%,58.823532%);fill-opacity:1;" d="M 69.070312 9.511719 C 69.394531 9.707031 69.394531 9.707031 69.726562 9.90625 C 72.101562 11.335938 74.433594 12.851562 76.738281 14.421875 C 80.3125 16.851562 83.949219 19.160156 87.574219 21.484375 C 88.777344 22.261719 89.972656 23.042969 91.167969 23.824219 C 92.796875 24.886719 94.433594 25.933594 96.066406 26.984375 C 98.011719 28.234375 99.945312 29.503906 101.875 30.785156 C 103.15625 31.632812 104.441406 32.429688 105.78125 33.15625 C 105.78125 33.335938 105.78125 33.515625 105.78125 33.699219 C 105.941406 33.699219 106.101562 33.699219 106.265625 33.699219 C 106.671875 34.265625 106.671875 34.265625 107.125 35.007812 C 107.273438 35.25 107.425781 35.492188 107.578125 35.742188 C 107.992188 36.480469 108.246094 36.949219 108.089844 37.824219 C 108.046875 37.988281 108 38.152344 107.953125 38.320312 C 107.789062 38.34375 107.621094 38.367188 107.449219 38.394531 C 106.585938 38.636719 105.949219 39.058594 105.183594 39.570312 C 105.035156 39.667969 104.886719 39.765625 104.734375 39.867188 C 104.261719 40.183594 103.792969 40.5 103.320312 40.816406 C 103.007812 41.023438 102.699219 41.230469 102.386719 41.4375 C 100.691406 42.566406 100.691406 42.566406 99.007812 43.722656 C 98.792969 43.871094 98.578125 44.023438 98.359375 44.175781 C 98.175781 44.304688 97.992188 44.433594 97.800781 44.566406 C 97.328125 44.839844 97.328125 44.839844 96.605469 44.839844 C 96.605469 45.019531 96.605469 45.199219 96.605469 45.382812 C 95.003906 46.472656 95.003906 46.472656 94.1875 46.472656 C 94.1875 46.652344 94.1875 46.828125 94.1875 47.015625 C 93.757812 47.28125 93.324219 47.546875 92.890625 47.8125 C 92.648438 47.960938 92.410156 48.109375 92.160156 48.261719 C 91.792969 48.488281 91.421875 48.707031 91.050781 48.917969 C 91.050781 48.738281 91.050781 48.558594 91.050781 48.375 C 90.890625 48.375 90.730469 48.375 90.566406 48.375 C 89.839844 47.433594 89.839844 47.433594 89.839844 46.742188 C 89.683594 46.652344 89.523438 46.5625 89.359375 46.472656 C 88.390625 45.222656 88.390625 45.222656 88.390625 44.570312 C 88.234375 44.480469 88.074219 44.390625 87.910156 44.296875 C 87.84375 44.078125 87.78125 43.859375 87.714844 43.636719 C 87.34375 42.738281 87.015625 42.730469 86.21875 42.394531 C 86.050781 42.039062 85.886719 41.675781 85.734375 41.308594 C 85.417969 41.121094 85.09375 40.941406 84.769531 40.765625 C 84.363281 40.316406 83.960938 39.863281 83.5625 39.40625 C 82.761719 38.648438 82.761719 38.648438 81.871094 38.046875 C 81.871094 37.867188 81.871094 37.6875 81.871094 37.503906 C 81.554688 37.503906 81.234375 37.503906 80.90625 37.503906 C 80.527344 37.113281 80.527344 37.113281 80.179688 36.6875 C 79.941406 36.597656 79.703125 36.507812 79.457031 36.417969 C 79.457031 36.238281 79.457031 36.058594 79.457031 35.871094 C 79.320312 35.828125 79.1875 35.78125 79.050781 35.734375 C 78.125 35.402344 77.265625 35.066406 76.421875 34.53125 C 74.898438 33.632812 73.152344 33.304688 71.488281 32.882812 C 71.148438 32.792969 71.148438 32.792969 70.800781 32.703125 C 67.441406 31.878906 63.136719 31.386719 59.894531 32.882812 C 59.425781 32.945312 58.960938 33.003906 58.492188 33.058594 C 57.390625 33.257812 56.300781 33.679688 55.304688 34.242188 C 55.144531 34.152344 54.988281 34.0625 54.824219 33.96875 C 54.824219 34.148438 54.824219 34.328125 54.824219 34.515625 C 54.503906 34.515625 54.183594 34.515625 53.855469 34.515625 C 53.777344 34.691406 53.695312 34.871094 53.613281 35.058594 C 53.210938 35.320312 53.210938 35.320312 52.710938 35.582031 C 51.121094 36.445312 49.554688 37.449219 48.300781 38.863281 C 48.0625 38.863281 47.824219 38.863281 47.578125 38.863281 C 47.457031 39.265625 47.457031 39.265625 47.335938 39.675781 C 46.945312 40.054688 46.539062 40.414062 46.128906 40.765625 C 44.871094 41.878906 43.507812 43.089844 42.988281 44.839844 C 42.839844 45.003906 42.691406 45.164062 42.535156 45.332031 C 41.949219 46.015625 41.644531 46.699219 41.296875 47.558594 C 41.140625 47.558594 40.980469 47.558594 40.816406 47.558594 C 40.574219 48.632812 40.574219 48.632812 40.332031 49.734375 C 40.171875 49.734375 40.011719 49.734375 39.847656 49.734375 C 39.785156 49.953125 39.71875 50.175781 39.652344 50.40625 C 39.445312 51.09375 39.238281 51.773438 39.019531 52.457031 C 38.957031 52.648438 38.894531 52.84375 38.832031 53.042969 C 38.707031 53.4375 38.578125 53.832031 38.449219 54.230469 C 37.808594 56.253906 37.371094 58.15625 37.28125 60.3125 C 37.273438 60.511719 37.265625 60.710938 37.257812 60.914062 C 36.960938 68.152344 38.023438 74.027344 41.054688 80.441406 C 41.21875 80.804688 41.378906 81.164062 41.539062 81.527344 C 40.996094 81.925781 40.453125 82.320312 39.910156 82.71875 C 39.757812 82.828125 39.601562 82.941406 39.445312 83.058594 C 37.433594 84.519531 37.433594 84.519531 36.46875 84.519531 C 36.46875 84.699219 36.46875 84.875 36.46875 85.0625 C 34.867188 86.148438 34.867188 86.148438 34.054688 86.148438 C 34.054688 86.328125 34.054688 86.507812 34.054688 86.691406 C 33.414062 87.089844 33.113281 87.234375 32.363281 87.234375 C 32.363281 87.414062 32.363281 87.59375 32.363281 87.777344 C 30.761719 88.867188 30.761719 88.867188 29.945312 88.867188 C 29.945312 89.046875 29.945312 89.226562 29.945312 89.410156 C 29.308594 89.808594 29.007812 89.953125 28.257812 89.953125 C 28.257812 90.132812 28.257812 90.3125 28.257812 90.496094 C 27.460938 90.964844 26.726562 91.390625 25.839844 91.582031 C 25.839844 91.761719 25.839844 91.941406 25.839844 92.128906 C 24.894531 92.6875 23.964844 93.128906 22.945312 93.484375 C 22.945312 93.664062 22.945312 93.84375 22.945312 94.03125 C 22.035156 93.890625 21.601562 93.730469 21.011719 92.941406 C 20.789062 92.433594 20.789062 92.433594 20.617188 91.890625 C 20.53125 91.621094 20.53125 91.621094 20.445312 91.347656 C 20.082031 90.007812 20.011719 88.730469 20.011719 87.332031 C 20.011719 87.125 20.011719 86.917969 20.007812 86.707031 C 20.007812 86.015625 20.007812 85.320312 20.007812 84.628906 C 20.003906 84.132812 20.003906 83.636719 20.003906 83.136719 C 20 81.789062 19.996094 80.441406 19.996094 79.089844 C 19.996094 78.246094 19.996094 77.402344 19.996094 76.558594 C 19.992188 73.921875 19.988281 71.28125 19.988281 68.640625 C 19.988281 65.59375 19.980469 62.550781 19.976562 59.503906 C 19.96875 57.148438 19.96875 54.792969 19.96875 52.4375 C 19.96875 51.03125 19.964844 49.625 19.960938 48.21875 C 19.957031 46.894531 19.957031 45.574219 19.957031 44.25 C 19.960938 43.765625 19.957031 43.28125 19.957031 42.796875 C 19.933594 38.292969 19.933594 38.292969 20.769531 36.144531 C 20.851562 35.921875 20.929688 35.695312 21.011719 35.464844 C 22.074219 33.390625 23.886719 32.480469 25.691406 31.375 C 26.863281 30.644531 28.011719 29.875 29.164062 29.113281 C 31.191406 27.777344 33.230469 26.460938 35.273438 25.152344 C 36.910156 24.101562 38.539062 23.03125 40.167969 21.960938 C 42.117188 20.679688 44.074219 19.410156 46.046875 18.171875 C 47.847656 17.039062 49.628906 15.875 51.410156 14.710938 C 51.789062 14.464844 51.789062 14.464844 52.171875 14.214844 C 53.492188 13.351562 54.777344 12.453125 56.042969 11.488281 C 56.648438 11.042969 57.277344 10.675781 57.933594 10.328125 C 58.917969 9.792969 59.867188 9.222656 60.816406 8.613281 C 63.777344 6.792969 66.296875 7.773438 69.070312 9.511719 Z M 69.070312 9.511719 "/>
<path style=" stroke:none;fill-rule:nonzero;fill:rgb(40.000001%,12.54902%,47.450981%);fill-opacity:1;" d="M 42.023438 81.800781 C 42.402344 82.332031 42.402344 82.332031 42.777344 82.988281 C 42.964844 83.3125 42.964844 83.3125 43.15625 83.640625 C 43.472656 84.246094 43.472656 84.246094 43.714844 85.0625 C 43.953125 85.152344 44.191406 85.242188 44.4375 85.332031 C 44.964844 85.859375 44.964844 85.859375 45.402344 86.421875 C 45.402344 86.601562 45.402344 86.777344 45.402344 86.964844 C 45.761719 87.097656 45.761719 87.097656 46.128906 87.234375 C 46.128906 87.414062 46.128906 87.59375 46.128906 87.777344 C 46.269531 87.851562 46.40625 87.921875 46.550781 87.996094 C 47.113281 88.335938 47.554688 88.714844 48.046875 89.171875 C 49.421875 90.394531 50.894531 91.40625 52.40625 92.398438 C 52.703125 92.59375 52.703125 92.59375 53 92.789062 C 59.214844 96.589844 67.234375 96.75 73.902344 94.574219 C 79.101562 92.78125 83.460938 89.324219 87.078125 84.789062 C 87.257812 84.566406 87.4375 84.339844 87.625 84.109375 C 88.140625 83.445312 88.632812 82.765625 89.117188 82.070312 C 89.195312 82.339844 89.277344 82.609375 89.359375 82.886719 C 89.828125 83.277344 89.828125 83.277344 90.414062 83.625 C 90.742188 83.828125 90.742188 83.828125 91.078125 84.039062 C 91.304688 84.179688 91.535156 84.320312 91.773438 84.46875 C 93.261719 85.390625 94.714844 86.328125 96.117188 87.414062 C 96.796875 87.921875 97.507812 88.355469 98.226562 88.796875 C 98.78125 89.140625 99.320312 89.5 99.863281 89.867188 C 100.0625 90 100.257812 90.136719 100.460938 90.273438 C 100.871094 90.550781 101.277344 90.828125 101.683594 91.105469 C 102.234375 91.484375 102.785156 91.855469 103.335938 92.230469 C 103.515625 92.351562 103.691406 92.476562 103.875 92.601562 C 104.046875 92.71875 104.214844 92.832031 104.390625 92.949219 C 104.617188 93.105469 104.617188 93.105469 104.851562 93.261719 C 105.363281 93.558594 105.363281 93.558594 106.265625 93.484375 C 105.902344 94.523438 105.394531 94.96875 104.589844 95.59375 C 104.378906 95.757812 104.164062 95.925781 103.949219 96.097656 C 103.367188 96.476562 103.367188 96.476562 102.640625 96.476562 C 102.640625 96.65625 102.640625 96.835938 102.640625 97.019531 C 102.003906 97.417969 101.699219 97.5625 100.949219 97.5625 C 100.949219 97.742188 100.949219 97.921875 100.949219 98.105469 C 100.8125 98.171875 100.675781 98.238281 100.535156 98.304688 C 99.605469 98.761719 98.699219 99.222656 97.828125 99.804688 C 97.085938 100.28125 97.085938 100.28125 96.605469 100.28125 C 96.605469 100.460938 96.605469 100.640625 96.605469 100.824219 C 96.394531 100.9375 96.1875 101.046875 95.972656 101.164062 C 94.160156 102.160156 92.441406 103.230469 90.746094 104.464844 C 90.082031 104.898438 90.082031 104.898438 89.527344 105.046875 C 89.390625 105.089844 89.257812 105.128906 89.117188 105.171875 C 89.039062 105.441406 88.957031 105.710938 88.875 105.988281 C 88.488281 106.183594 88.101562 106.378906 87.707031 106.550781 C 86.664062 107.050781 85.703125 107.726562 84.722656 108.363281 C 84.386719 108.582031 84.386719 108.582031 84.046875 108.804688 C 83.402344 109.222656 82.757812 109.644531 82.113281 110.0625 C 81.949219 110.171875 81.785156 110.277344 81.617188 110.386719 C 80.09375 111.378906 80.09375 111.378906 78.585938 112.402344 C 77.929688 112.832031 77.28125 113.078125 76.558594 113.324219 C 76.558594 113.503906 76.558594 113.683594 76.558594 113.867188 C 76.367188 113.972656 76.171875 114.078125 75.976562 114.1875 C 74.335938 115.074219 74.335938 115.074219 72.785156 116.144531 C 72.210938 116.585938 72.210938 116.585938 71.726562 116.585938 C 71.648438 116.765625 71.570312 116.945312 71.488281 117.128906 C 71.328125 117.039062 71.167969 116.949219 71.003906 116.859375 C 71.003906 117.039062 71.003906 117.214844 71.003906 117.402344 C 70.613281 117.628906 70.21875 117.855469 69.828125 118.082031 C 69.609375 118.207031 69.390625 118.332031 69.164062 118.460938 C 68.589844 118.761719 68.589844 118.761719 68.105469 118.761719 C 68.105469 118.9375 68.105469 119.117188 68.105469 119.304688 C 65.667969 120.335938 63.671875 120.820312 61.1875 119.734375 C 60.421875 119.339844 59.671875 118.929688 58.929688 118.488281 C 58.929688 118.308594 58.929688 118.128906 58.929688 117.945312 C 58.714844 117.867188 58.5 117.789062 58.277344 117.707031 C 57.597656 117.445312 56.9375 117.164062 56.273438 116.859375 C 56.273438 116.679688 56.273438 116.5 56.273438 116.3125 C 56.097656 116.234375 55.921875 116.15625 55.742188 116.078125 C 55.113281 115.792969 54.484375 115.511719 53.855469 115.226562 C 53.855469 115.046875 53.855469 114.867188 53.855469 114.683594 C 53.644531 114.613281 53.429688 114.542969 53.210938 114.46875 C 52.417969 114.144531 51.824219 113.757812 51.125 113.222656 C 49.984375 112.378906 48.84375 111.71875 47.578125 111.152344 C 47.578125 110.972656 47.578125 110.792969 47.578125 110.605469 C 47.40625 110.535156 47.234375 110.460938 47.054688 110.386719 C 46.359375 110.058594 45.714844 109.679688 45.054688 109.265625 C 44.132812 108.691406 43.210938 108.136719 42.265625 107.617188 C 42.265625 107.4375 42.265625 107.257812 42.265625 107.074219 C 42.046875 107.015625 42.046875 107.015625 41.828125 106.957031 C 41.402344 106.832031 40.988281 106.6875 40.574219 106.53125 C 40.574219 106.351562 40.574219 106.171875 40.574219 105.988281 C 40.445312 105.960938 40.316406 105.933594 40.183594 105.90625 C 39.4375 105.660156 38.820312 105.269531 38.144531 104.847656 C 37.867188 104.679688 37.59375 104.511719 37.308594 104.335938 C 36.894531 104.078125 36.894531 104.078125 36.46875 103.8125 C 35.960938 103.5 35.453125 103.191406 34.945312 102.878906 C 34.566406 102.648438 34.1875 102.414062 33.8125 102.183594 C 33.8125 102.003906 33.8125 101.824219 33.8125 101.640625 C 33.492188 101.640625 33.171875 101.640625 32.84375 101.640625 C 32.84375 101.460938 32.84375 101.28125 32.84375 101.09375 C 32.605469 101.09375 32.367188 101.09375 32.121094 101.09375 C 32.121094 100.917969 32.121094 100.738281 32.121094 100.550781 C 31.949219 100.480469 31.777344 100.40625 31.597656 100.332031 C 30.902344 100.003906 30.257812 99.625 29.601562 99.210938 C 28.679688 98.636719 27.753906 98.082031 26.808594 97.5625 C 26.324219 97.289062 25.839844 97.019531 25.359375 96.746094 C 25.359375 96.566406 25.359375 96.386719 25.359375 96.203125 C 25.039062 96.203125 24.722656 96.203125 24.390625 96.203125 C 24.3125 96.023438 24.234375 95.84375 24.152344 95.660156 C 23.675781 95.375 23.191406 95.101562 22.703125 94.84375 C 22.703125 94.664062 22.703125 94.484375 22.703125 94.300781 C 22.542969 94.210938 22.382812 94.121094 22.21875 94.03125 C 22.457031 94.03125 22.695312 94.03125 22.945312 94.03125 C 22.945312 93.851562 22.945312 93.671875 22.945312 93.484375 C 23.28125 93.300781 23.28125 93.300781 23.621094 93.113281 C 24.402344 92.6875 24.402344 92.6875 25.117188 92.128906 C 25.355469 92.128906 25.59375 92.128906 25.839844 92.128906 C 25.839844 91.949219 25.839844 91.769531 25.839844 91.582031 C 26.152344 91.402344 26.464844 91.21875 26.777344 91.039062 C 26.949219 90.9375 27.125 90.839844 27.304688 90.734375 C 27.773438 90.496094 27.773438 90.496094 28.257812 90.496094 C 28.257812 90.316406 28.257812 90.136719 28.257812 89.953125 C 28.894531 89.554688 29.195312 89.410156 29.945312 89.410156 C 29.945312 89.230469 29.945312 89.050781 29.945312 88.867188 C 30.257812 88.683594 30.570312 88.503906 30.882812 88.324219 C 31.058594 88.222656 31.230469 88.121094 31.410156 88.015625 C 31.878906 87.777344 31.878906 87.777344 32.363281 87.777344 C 32.363281 87.601562 32.363281 87.421875 32.363281 87.234375 C 33 86.839844 33.304688 86.691406 34.054688 86.691406 C 34.054688 86.511719 34.054688 86.332031 34.054688 86.148438 C 34.363281 85.964844 34.675781 85.785156 34.988281 85.605469 C 35.164062 85.503906 35.335938 85.402344 35.515625 85.300781 C 35.984375 85.0625 35.984375 85.0625 36.46875 85.0625 C 36.46875 84.882812 36.46875 84.703125 36.46875 84.519531 C 36.65625 84.417969 36.839844 84.3125 37.035156 84.210938 C 38.382812 83.464844 39.675781 82.714844 40.90625 81.742188 C 41.296875 81.527344 41.296875 81.527344 42.023438 81.800781 Z M 42.023438 81.800781 "/>
<path style=" stroke:none;fill-rule:nonzero;fill:rgb(60.392159%,30.588236%,58.823532%);fill-opacity:1;" d="M 74.144531 50.277344 C 76.09375 51.992188 77.613281 53.925781 78.972656 56.253906 C 78.8125 56.613281 78.65625 56.972656 78.492188 57.34375 C 78.25 57.34375 78.011719 57.34375 77.765625 57.34375 C 77.765625 57.519531 77.765625 57.699219 77.765625 57.886719 C 77.375 58.113281 76.980469 58.339844 76.589844 58.566406 C 76.371094 58.691406 76.152344 58.816406 75.925781 58.945312 C 75.351562 59.246094 75.351562 59.246094 74.867188 59.246094 C 74.867188 59.421875 74.867188 59.601562 74.867188 59.789062 C 74.679688 59.890625 74.496094 59.992188 74.300781 60.097656 C 73.015625 60.808594 71.761719 61.53125 70.554688 62.40625 C 69.878906 62.890625 69.191406 63.351562 68.5 63.8125 C 68.253906 63.976562 68.007812 64.140625 67.753906 64.3125 C 67.140625 64.679688 67.140625 64.679688 66.65625 64.679688 C 66.65625 64.859375 66.65625 65.039062 66.65625 65.222656 C 66.460938 65.328125 66.269531 65.4375 66.066406 65.546875 C 65.195312 66.042969 64.351562 66.578125 63.503906 67.128906 C 63.035156 67.398438 63.035156 67.398438 62.550781 67.398438 C 62.550781 67.578125 62.550781 67.753906 62.550781 67.941406 C 62.410156 68.015625 62.265625 68.09375 62.121094 68.175781 C 60.492188 69.070312 58.929688 70.070312 57.375 71.117188 C 57.136719 71.273438 56.902344 71.433594 56.65625 71.59375 C 55.792969 72.171875 54.933594 72.75 54.097656 73.375 C 53.78125 73.375 53.460938 73.375 53.132812 73.375 C 51.792969 70.679688 50.871094 68.363281 50.71875 65.222656 C 50.699219 64.976562 50.679688 64.730469 50.660156 64.472656 C 50.507812 61.128906 51.507812 57.285156 53.238281 54.589844 C 53.375 54.371094 53.515625 54.152344 53.660156 53.925781 C 55.558594 51.070312 57.679688 49.425781 60.617188 48.101562 C 60.804688 48.007812 60.992188 47.917969 61.1875 47.820312 C 65.417969 46.015625 70.59375 47.421875 74.144531 50.277344 Z M 74.144531 50.277344 "/>
<path style=" stroke:none;fill-rule:nonzero;fill:rgb(40.000001%,12.941177%,47.450981%);fill-opacity:1;" d="M 65.207031 66.582031 C 65.507812 66.746094 65.800781 66.917969 66.085938 67.105469 C 66.25 67.210938 66.414062 67.3125 66.582031 67.421875 C 66.835938 67.585938 66.835938 67.585938 67.09375 67.753906 C 67.261719 67.859375 67.425781 67.964844 67.597656 68.074219 C 68.089844 68.390625 68.582031 68.710938 69.070312 69.027344 C 69.394531 69.234375 69.71875 69.441406 70.039062 69.652344 C 70.277344 69.804688 70.515625 69.957031 70.761719 70.113281 C 70.761719 70.292969 70.761719 70.472656 70.761719 70.65625 C 70.890625 70.6875 71.019531 70.714844 71.15625 70.742188 C 71.878906 70.980469 72.511719 71.351562 73.175781 71.746094 C 73.175781 71.925781 73.175781 72.105469 73.175781 72.289062 C 73.3125 72.316406 73.445312 72.347656 73.582031 72.375 C 74.25 72.597656 74.78125 72.925781 75.382812 73.324219 C 75.589844 73.460938 75.800781 73.597656 76.015625 73.738281 C 76.582031 74.210938 76.789062 74.546875 77.042969 75.277344 C 76.78125 75.503906 76.78125 75.503906 76.511719 75.738281 C 75.832031 76.339844 75.832031 76.339844 75.289062 77.027344 C 74.429688 77.929688 73.484375 78.46875 72.453125 79.082031 C 72.234375 79.234375 72.015625 79.386719 71.789062 79.542969 C 68.847656 81.472656 64.875 81.390625 61.667969 80.472656 C 60.1875 79.917969 58.847656 79.109375 57.480469 78.265625 C 57.289062 78.160156 57.097656 78.050781 56.898438 77.941406 C 55.84375 77.328125 55.84375 77.328125 55.5625 76.570312 C 55.558594 76.410156 55.550781 76.253906 55.546875 76.09375 C 55.386719 76.09375 55.226562 76.09375 55.0625 76.09375 C 55.0625 75.914062 55.0625 75.734375 55.0625 75.550781 C 54.90625 75.550781 54.746094 75.550781 54.582031 75.550781 C 54.582031 75.371094 54.582031 75.191406 54.582031 75.007812 C 54.34375 74.917969 54.101562 74.828125 53.855469 74.734375 C 53.570312 74.039062 53.570312 74.039062 53.375 73.375 C 53.53125 73.28125 53.6875 73.1875 53.847656 73.089844 C 55.875 71.859375 57.855469 70.546875 59.832031 69.214844 C 60.078125 69.050781 60.328125 68.886719 60.582031 68.714844 C 60.804688 68.566406 61.023438 68.417969 61.253906 68.265625 C 61.828125 67.941406 61.828125 67.941406 62.550781 67.941406 C 62.550781 67.761719 62.550781 67.582031 62.550781 67.398438 C 64.199219 66.222656 64.199219 66.222656 65.207031 66.582031 Z M 65.207031 66.582031 "/>
<path style=" stroke:none;fill-rule:nonzero;fill:rgb(91.764706%,90.980393%,91.764706%);fill-opacity:1;" d="M 93.222656 57.886719 C 93.78125 57.886719 94.339844 57.886719 94.914062 57.886719 C 94.832031 58.15625 94.753906 58.421875 94.671875 58.699219 C 95.230469 58.699219 95.789062 58.699219 96.363281 58.699219 C 96.363281 59.328125 96.363281 59.957031 96.363281 60.601562 C 96.839844 60.601562 97.320312 60.601562 97.8125 60.601562 C 97.652344 60.691406 97.492188 60.78125 97.328125 60.875 C 97.488281 61.234375 97.648438 61.59375 97.8125 61.960938 C 98.050781 61.871094 98.289062 61.78125 98.535156 61.691406 C 98.53125 61.992188 98.527344 62.296875 98.519531 62.605469 C 98.472656 63.546875 98.472656 63.546875 98.777344 64.136719 C 97.980469 64.136719 97.183594 64.136719 96.363281 64.136719 C 96.363281 64.386719 96.363281 64.640625 96.363281 64.898438 C 96.363281 66.003906 96.363281 67.109375 96.363281 68.210938 C 97.160156 68.210938 97.957031 68.210938 98.777344 68.210938 C 98.777344 69.378906 98.777344 70.542969 98.777344 71.746094 C 97.980469 71.746094 97.183594 71.746094 96.363281 71.746094 C 96.363281 72.730469 96.363281 73.71875 96.363281 74.734375 C 95.328125 74.734375 94.289062 74.734375 93.222656 74.734375 C 93.222656 73.75 93.222656 72.761719 93.222656 71.746094 C 91.949219 71.746094 90.671875 71.746094 89.359375 71.746094 C 89.359375 72.730469 89.359375 73.71875 89.359375 74.734375 C 88.324219 74.734375 87.285156 74.734375 86.21875 74.734375 C 86.695312 74.601562 86.695312 74.601562 87.183594 74.460938 C 87.132812 74.3125 87.082031 74.160156 87.027344 74.007812 C 86.960938 73.808594 86.890625 73.613281 86.824219 73.410156 C 86.753906 73.214844 86.6875 73.019531 86.617188 72.816406 C 86.460938 72.289062 86.460938 72.289062 86.460938 71.746094 C 86.269531 71.71875 86.082031 71.6875 85.886719 71.660156 C 85.253906 71.472656 85.253906 71.472656 84.769531 70.65625 C 84.273438 70.460938 84.273438 70.460938 83.804688 70.386719 C 83.804688 69.667969 83.804688 68.953125 83.804688 68.210938 C 84.601562 68.210938 85.398438 68.210938 86.21875 68.210938 C 86.21875 68.03125 86.21875 67.855469 86.21875 67.667969 C 86.617188 67.488281 87.015625 67.308594 87.425781 67.125 C 87.425781 66.316406 87.425781 65.511719 87.425781 64.679688 C 88.390625 65.96875 88.390625 65.96875 88.390625 66.582031 C 88.550781 66.582031 88.710938 66.582031 88.875 66.582031 C 89.359375 67.398438 89.359375 67.398438 89.359375 68.210938 C 90.632812 68.210938 91.910156 68.210938 93.222656 68.210938 C 93.222656 66.867188 93.222656 65.523438 93.222656 64.136719 C 92.824219 64.046875 92.425781 63.957031 92.015625 63.863281 C 91.894531 63.324219 91.894531 63.324219 91.773438 62.777344 C 90.652344 62.703125 90.652344 62.703125 89.601562 63.050781 C 89.601562 62.871094 89.601562 62.691406 89.601562 62.503906 C 88.882812 62.503906 88.164062 62.503906 87.425781 62.503906 C 87.378906 62.019531 87.335938 61.53125 87.289062 61.042969 C 87.265625 60.773438 87.238281 60.503906 87.214844 60.222656 C 87.183594 59.515625 87.183594 59.515625 87.425781 58.972656 C 87.984375 58.972656 88.542969 58.972656 89.117188 58.972656 C 89.105469 59.230469 89.097656 59.488281 89.085938 59.753906 C 89.03125 60.628906 89.03125 60.628906 89.601562 61.148438 C 90.097656 61.261719 90.097656 61.261719 90.65625 61.300781 C 91.230469 61.351562 91.738281 61.40625 92.292969 61.59375 C 92.515625 61.640625 92.515625 61.640625 92.738281 61.691406 C 93.277344 61.1875 93.632812 60.765625 93.945312 60.058594 C 93.707031 60.148438 93.46875 60.238281 93.222656 60.332031 C 93.222656 59.523438 93.222656 58.71875 93.222656 57.886719 Z M 94.914062 65.496094 C 94.992188 65.765625 95.074219 66.03125 95.15625 66.308594 C 95.15625 66.039062 95.15625 65.773438 95.15625 65.496094 C 95.074219 65.496094 94.996094 65.496094 94.914062 65.496094 Z M 94.914062 65.496094 "/>
<path style=" stroke:none;fill-rule:nonzero;fill:rgb(90.196079%,89.411765%,90.196079%);fill-opacity:1;" d="M 86.21875 59.789062 C 86.539062 59.789062 86.855469 59.789062 87.183594 59.789062 C 87.574219 60.660156 87.441406 61.535156 87.425781 62.503906 C 88.144531 62.503906 88.859375 62.503906 89.601562 62.503906 C 89.679688 62.953125 89.757812 63.402344 89.839844 63.863281 C 91.515625 64 91.515625 64 93.222656 64.136719 C 93.222656 65.480469 93.222656 66.828125 93.222656 68.210938 C 91.949219 68.210938 90.671875 68.210938 89.359375 68.210938 C 89.238281 66.464844 89.238281 66.464844 89.117188 64.679688 C 88.878906 64.769531 88.640625 64.859375 88.390625 64.949219 C 88.550781 65.488281 88.710938 66.027344 88.875 66.582031 C 88.714844 66.582031 88.558594 66.582031 88.390625 66.582031 C 88 66.039062 88 66.039062 87.667969 65.496094 C 87.652344 65.753906 87.636719 66.011719 87.621094 66.277344 C 87.558594 66.554688 87.492188 66.835938 87.425781 67.125 C 86.808594 67.5 86.808594 67.5 86.21875 67.667969 C 86.175781 65.113281 86.175781 65.113281 86.460938 63.863281 C 86.0625 63.773438 85.664062 63.683594 85.253906 63.59375 C 85.171875 63.773438 85.09375 63.949219 85.011719 64.136719 C 84.613281 64.136719 84.214844 64.136719 83.804688 64.136719 C 83.804688 63.597656 83.804688 63.058594 83.804688 62.503906 C 84.121094 62.503906 84.441406 62.503906 84.769531 62.503906 C 84.847656 61.878906 84.929688 61.25 85.011719 60.601562 C 85.410156 60.601562 85.808594 60.601562 86.21875 60.601562 C 86.21875 60.332031 86.21875 60.066406 86.21875 59.789062 Z M 86.21875 59.789062 "/>
<path style=" stroke:none;fill-rule:nonzero;fill:rgb(97.254902%,97.254902%,97.254902%);fill-opacity:1;" d="M 98.292969 68.210938 C 98.453125 68.210938 98.613281 68.210938 98.777344 68.210938 C 98.777344 69.378906 98.777344 70.542969 98.777344 71.746094 C 97.980469 71.746094 97.183594 71.746094 96.363281 71.746094 C 96.363281 72.730469 96.363281 73.71875 96.363281 74.734375 C 95.328125 74.734375 94.289062 74.734375 93.222656 74.734375 C 93.222656 73.75 93.222656 72.761719 93.222656 71.746094 C 92.746094 71.746094 92.265625 71.746094 91.773438 71.746094 C 91.773438 71.027344 91.773438 70.308594 91.773438 69.570312 C 92.492188 69.570312 93.207031 69.570312 93.945312 69.570312 C 93.945312 70.378906 93.945312 71.183594 93.945312 72.015625 C 94.585938 72.015625 95.222656 72.015625 95.878906 72.015625 C 95.878906 71.210938 95.878906 70.402344 95.878906 69.570312 C 96.597656 69.570312 97.3125 69.570312 98.054688 69.570312 C 98.132812 69.121094 98.210938 68.675781 98.292969 68.210938 Z M 98.292969 68.210938 "/>
<path style=" stroke:none;fill-rule:nonzero;fill:rgb(45.490196%,18.431373%,48.235294%);fill-opacity:1;" d="M 89.359375 64.136719 C 90.632812 64.136719 91.910156 64.136719 93.222656 64.136719 C 93.222656 65.480469 93.222656 66.828125 93.222656 68.210938 C 91.949219 68.210938 90.671875 68.210938 89.359375 68.210938 C 89.359375 66.867188 89.359375 65.523438 89.359375 64.136719 Z M 89.359375 64.136719 "/>
<path style=" stroke:none;fill-rule:nonzero;fill:rgb(89.411765%,88.235295%,89.411765%);fill-opacity:1;" d="M 83.804688 68.210938 C 84.363281 68.210938 84.917969 68.210938 85.496094 68.210938 C 85.414062 68.660156 85.335938 69.109375 85.253906 69.570312 C 85.96875 69.570312 86.6875 69.570312 87.425781 69.570312 C 87.425781 70.378906 87.425781 71.183594 87.425781 72.015625 C 87.984375 72.015625 88.542969 72.015625 89.117188 72.015625 C 89.195312 72.914062 89.277344 73.8125 89.359375 74.734375 C 88.324219 74.734375 87.285156 74.734375 86.21875 74.734375 C 86.539062 74.644531 86.855469 74.554688 87.183594 74.460938 C 87.132812 74.3125 87.082031 74.160156 87.027344 74.007812 C 86.960938 73.808594 86.890625 73.613281 86.824219 73.410156 C 86.753906 73.214844 86.6875 73.019531 86.617188 72.816406 C 86.460938 72.289062 86.460938 72.289062 86.460938 71.746094 C 86.269531 71.71875 86.082031 71.6875 85.886719 71.660156 C 85.253906 71.472656 85.253906 71.472656 84.769531 70.65625 C 84.273438 70.460938 84.273438 70.460938 83.804688 70.386719 C 83.804688 69.667969 83.804688 68.953125 83.804688 68.210938 Z M 83.804688 68.210938 "/>
<path style=" stroke:none;fill-rule:nonzero;fill:rgb(90.588236%,89.803922%,90.588236%);fill-opacity:1;" d="M 93.222656 57.886719 C 93.78125 57.886719 94.339844 57.886719 94.914062 57.886719 C 94.832031 58.15625 94.753906 58.421875 94.671875 58.699219 C 95.148438 58.699219 95.628906 58.699219 96.121094 58.699219 C 96.121094 58.878906 96.121094 59.058594 96.121094 59.246094 C 95.5625 59.421875 95.003906 59.601562 94.429688 59.789062 C 94.929688 59.9375 95.359375 60.058594 95.878906 60.058594 C 95.878906 60.867188 95.878906 61.671875 95.878906 62.503906 C 94.492188 62.8125 94.492188 62.8125 93.945312 62.503906 C 93.867188 62.234375 93.789062 61.96875 93.707031 61.691406 C 93.226562 61.960938 93.226562 61.960938 92.738281 62.234375 C 92.738281 61.691406 92.738281 61.691406 93.207031 61.148438 C 93.371094 60.96875 93.535156 60.789062 93.707031 60.601562 C 93.785156 60.421875 93.863281 60.246094 93.945312 60.058594 C 93.707031 60.148438 93.46875 60.238281 93.222656 60.332031 C 93.222656 59.523438 93.222656 58.71875 93.222656 57.886719 Z M 93.222656 57.886719 "/>
<path style=" stroke:none;fill-rule:nonzero;fill:rgb(89.803922%,88.627452%,89.803922%);fill-opacity:1;" d="M 87.425781 62.503906 C 88.144531 62.503906 88.859375 62.503906 89.601562 62.503906 C 89.679688 62.953125 89.757812 63.402344 89.839844 63.863281 C 89.683594 63.863281 89.523438 63.863281 89.359375 63.863281 C 89.199219 64.222656 89.039062 64.582031 88.875 64.949219 C 88.714844 64.949219 88.558594 64.949219 88.390625 64.949219 C 88.550781 65.488281 88.710938 66.027344 88.875 66.582031 C 88.714844 66.582031 88.558594 66.582031 88.390625 66.582031 C 88 66.039062 88 66.039062 87.667969 65.496094 C 87.652344 65.753906 87.636719 66.011719 87.621094 66.277344 C 87.558594 66.554688 87.492188 66.835938 87.425781 67.125 C 86.808594 67.5 86.808594 67.5 86.21875 67.667969 C 86.207031 67.273438 86.195312 66.875 86.1875 66.480469 C 86.179688 66.148438 86.179688 66.148438 86.171875 65.8125 C 86.21875 65.222656 86.21875 65.222656 86.703125 64.679688 C 86.859375 64.589844 87.019531 64.5 87.183594 64.40625 C 87.285156 63.777344 87.363281 63.140625 87.425781 62.503906 Z M 87.425781 62.503906 "/>
<path style=" stroke:none;fill-rule:nonzero;fill:rgb(99.607843%,99.607843%,99.607843%);fill-opacity:1;" d="M 87.425781 69.570312 C 88.144531 69.570312 88.859375 69.570312 89.601562 69.570312 C 89.617188 70.796875 89.625 71.90625 89.359375 73.105469 C 89.277344 72.746094 89.199219 72.386719 89.117188 72.015625 C 88.558594 72.015625 88 72.015625 87.425781 72.015625 C 87.425781 71.210938 87.425781 70.402344 87.425781 69.570312 Z M 87.425781 69.570312 "/>
<path style=" stroke:none;fill-rule:nonzero;fill:rgb(89.019608%,88.235295%,89.019608%);fill-opacity:1;" d="M 87.425781 72.015625 C 87.984375 72.015625 88.542969 72.015625 89.117188 72.015625 C 89.195312 72.914062 89.277344 73.8125 89.359375 74.734375 C 88.324219 74.734375 87.285156 74.734375 86.21875 74.734375 C 86.21875 74.644531 86.21875 74.554688 86.21875 74.460938 C 86.617188 74.460938 87.015625 74.460938 87.425781 74.460938 C 87.425781 73.65625 87.425781 72.847656 87.425781 72.015625 Z M 87.425781 72.015625 "/>
<path style=" stroke:none;fill-rule:nonzero;fill:rgb(95.294118%,94.901961%,95.294118%);fill-opacity:1;" d="M 96.121094 58.699219 C 96.199219 58.699219 96.28125 58.699219 96.363281 58.699219 C 96.363281 59.328125 96.363281 59.957031 96.363281 60.601562 C 96.839844 60.601562 97.320312 60.601562 97.8125 60.601562 C 97.570312 60.738281 97.570312 60.738281 97.328125 60.875 C 97.488281 61.414062 97.648438 61.949219 97.8125 62.503906 C 97 62.800781 96.773438 62.757812 95.878906 62.503906 C 95.878906 61.699219 95.878906 60.890625 95.878906 60.058594 C 95.402344 60.148438 94.921875 60.238281 94.429688 60.332031 C 94.429688 60.152344 94.429688 59.972656 94.429688 59.789062 C 95.15625 59.246094 95.15625 59.246094 96.121094 59.246094 C 96.121094 59.066406 96.121094 58.886719 96.121094 58.699219 Z M 96.121094 58.699219 "/>
<path style=" stroke:none;fill-rule:nonzero;fill:rgb(100%,100%,100%);fill-opacity:1;" d="M 91.773438 69.570312 C 92.492188 69.570312 93.207031 69.570312 93.945312 69.570312 C 93.945312 70.378906 93.945312 71.183594 93.945312 72.015625 C 93.707031 72.105469 93.46875 72.195312 93.222656 72.289062 C 93.222656 72.109375 93.222656 71.929688 93.222656 71.746094 C 92.746094 71.746094 92.265625 71.746094 91.773438 71.746094 C 91.773438 71.027344 91.773438 70.308594 91.773438 69.570312 Z M 91.773438 69.570312 "/>
<path style=" stroke:none;fill-rule:nonzero;fill:rgb(100%,100%,100%);fill-opacity:1;" d="M 93.945312 72.015625 C 94.585938 72.015625 95.222656 72.015625 95.878906 72.015625 C 96.152344 73.546875 96.152344 73.546875 95.878906 74.460938 C 95.242188 74.460938 94.605469 74.460938 93.945312 74.460938 C 93.945312 73.65625 93.945312 72.847656 93.945312 72.015625 Z M 93.945312 72.015625 "/>
<path style=" stroke:none;fill-rule:nonzero;fill:rgb(90.588236%,90.588236%,90.588236%);fill-opacity:1;" d="M 93.945312 69.570312 C 94.585938 69.570312 95.222656 69.570312 95.878906 69.570312 C 95.878906 70.378906 95.878906 71.183594 95.878906 72.015625 C 95.242188 72.015625 94.605469 72.015625 93.945312 72.015625 C 93.945312 71.210938 93.945312 70.402344 93.945312 69.570312 Z M 93.945312 69.570312 "/>
<path style=" stroke:none;fill-rule:nonzero;fill:rgb(90.588236%,90.588236%,90.588236%);fill-opacity:1;" d="M 89.601562 69.570312 C 90.316406 69.570312 91.035156 69.570312 91.773438 69.570312 C 91.773438 70.289062 91.773438 71.007812 91.773438 71.746094 C 91.054688 71.746094 90.339844 71.746094 89.601562 71.746094 C 89.601562 71.027344 89.601562 70.308594 89.601562 69.570312 Z M 89.601562 69.570312 "/>
<path style=" stroke:none;fill-rule:nonzero;fill:rgb(99.607843%,99.607843%,99.607843%);fill-opacity:1;" d="M 93.945312 67.125 C 94.585938 67.125 95.222656 67.125 95.878906 67.125 C 96.160156 68.070312 96.050781 68.609375 95.878906 69.570312 C 95.242188 69.570312 94.605469 69.570312 93.945312 69.570312 C 93.945312 68.765625 93.945312 67.957031 93.945312 67.125 Z M 93.945312 67.125 "/>
<path style=" stroke:none;fill-rule:nonzero;fill:rgb(99.215686%,99.215686%,99.215686%);fill-opacity:1;" d="M 87.425781 67.125 C 87.425781 67.933594 87.425781 68.738281 87.425781 69.570312 C 86.710938 69.570312 85.992188 69.570312 85.253906 69.570312 C 85.332031 69.121094 85.414062 68.675781 85.496094 68.210938 C 85.734375 68.210938 85.972656 68.210938 86.21875 68.210938 C 86.21875 68.03125 86.21875 67.855469 86.21875 67.667969 C 86.945312 67.125 86.945312 67.125 87.425781 67.125 Z M 87.425781 67.125 "/>
<path style=" stroke:none;fill-rule:nonzero;fill:rgb(90.980393%,90.980393%,90.980393%);fill-opacity:1;" d="M 98.054688 61.691406 C 98.210938 61.691406 98.371094 61.691406 98.535156 61.691406 C 98.53125 61.992188 98.527344 62.296875 98.519531 62.605469 C 98.472656 63.546875 98.472656 63.546875 98.777344 64.136719 C 97.441406 64.234375 97.441406 64.234375 96.875 63.726562 C 96.785156 63.59375 96.695312 63.460938 96.605469 63.320312 C 96.363281 63.5 96.125 63.679688 95.878906 63.863281 C 95.878906 63.414062 95.878906 62.96875 95.878906 62.503906 C 96.148438 62.523438 96.417969 62.539062 96.695312 62.554688 C 96.984375 62.539062 97.273438 62.523438 97.570312 62.503906 C 97.730469 62.234375 97.886719 61.96875 98.054688 61.691406 Z M 98.054688 61.691406 "/>
<path style=" stroke:none;fill-rule:nonzero;fill:rgb(90.980393%,90.980393%,90.980393%);fill-opacity:1;" d="M 83.804688 68.210938 C 84.363281 68.210938 84.917969 68.210938 85.496094 68.210938 C 85.414062 68.929688 85.335938 69.648438 85.253906 70.386719 C 84.773438 70.386719 84.296875 70.386719 83.804688 70.386719 C 83.804688 69.667969 83.804688 68.953125 83.804688 68.210938 Z M 83.804688 68.210938 "/>
<path style=" stroke:none;fill-rule:nonzero;fill:rgb(98.431373%,98.431373%,98.431373%);fill-opacity:1;" d="M 93.945312 62.503906 C 94.585938 62.503906 95.222656 62.503906 95.878906 62.503906 C 95.878906 63.132812 95.878906 63.761719 95.878906 64.40625 C 95.242188 64.316406 94.605469 64.226562 93.945312 64.136719 C 93.945312 63.597656 93.945312 63.058594 93.945312 62.503906 Z M 93.945312 62.503906 "/>
<path style=" stroke:none;fill-rule:nonzero;fill:rgb(98.823529%,98.823529%,98.823529%);fill-opacity:1;" d="M 89.601562 68.210938 C 90.316406 68.210938 91.035156 68.210938 91.773438 68.210938 C 91.773438 68.660156 91.773438 69.109375 91.773438 69.570312 C 91.054688 69.570312 90.339844 69.570312 89.601562 69.570312 C 89.601562 69.121094 89.601562 68.675781 89.601562 68.210938 Z M 89.601562 68.210938 "/>
<path style=" stroke:none;fill-rule:nonzero;fill:rgb(87.058824%,85.09804%,87.058824%);fill-opacity:1;" d="M 93.464844 72.015625 C 93.625 72.015625 93.78125 72.015625 93.945312 72.015625 C 93.945312 72.824219 93.945312 73.632812 93.945312 74.460938 C 94.585938 74.460938 95.222656 74.460938 95.878906 74.460938 C 95.957031 74.195312 96.039062 73.925781 96.121094 73.648438 C 96.199219 74.007812 96.28125 74.363281 96.363281 74.734375 C 95.328125 74.734375 94.289062 74.734375 93.222656 74.734375 C 93.199219 72.851562 93.199219 72.851562 93.222656 72.289062 C 93.300781 72.199219 93.382812 72.109375 93.464844 72.015625 Z M 93.464844 72.015625 "/>
<path style=" stroke:none;fill-rule:nonzero;fill:rgb(97.254902%,97.254902%,97.254902%);fill-opacity:1;" d="M 85.253906 62.503906 C 85.96875 62.503906 86.6875 62.503906 87.425781 62.503906 C 87.425781 63.132812 87.425781 63.761719 87.425781 64.40625 C 87.1875 64.542969 87.1875 64.542969 86.945312 64.679688 C 86.660156 64.359375 86.375 64.039062 86.097656 63.710938 C 85.746094 63.292969 85.746094 63.292969 85.253906 63.050781 C 85.253906 62.871094 85.253906 62.691406 85.253906 62.503906 Z M 85.253906 62.503906 "/>
<path style=" stroke:none;fill-rule:nonzero;fill:rgb(98.431373%,98.431373%,98.431373%);fill-opacity:1;" d="M 87.425781 64.679688 C 88.390625 65.96875 88.390625 65.96875 88.390625 66.582031 C 88.550781 66.582031 88.710938 66.582031 88.875 66.582031 C 88.957031 66.941406 89.035156 67.300781 89.117188 67.667969 C 88.558594 67.488281 88 67.308594 87.425781 67.125 C 87.425781 66.316406 87.425781 65.511719 87.425781 64.679688 Z M 87.425781 64.679688 "/>
<path style=" stroke:none;fill-rule:nonzero;fill:rgb(92.941177%,91.764706%,92.941177%);fill-opacity:1;" d="M 86.21875 59.789062 C 86.457031 59.878906 86.695312 59.96875 86.945312 60.058594 C 86.945312 60.238281 86.945312 60.417969 86.945312 60.601562 C 86.460938 60.96875 85.980469 61.332031 85.496094 61.691406 C 85.335938 61.960938 85.175781 62.226562 85.011719 62.503906 C 85.011719 61.878906 85.011719 61.25 85.011719 60.601562 C 85.410156 60.601562 85.808594 60.601562 86.21875 60.601562 C 86.21875 60.332031 86.21875 60.066406 86.21875 59.789062 Z M 86.21875 59.789062 "/>
<path style=" stroke:none;fill-rule:nonzero;fill:rgb(100%,100%,100%);fill-opacity:1;" d="M 98.292969 68.210938 C 98.453125 68.210938 98.613281 68.210938 98.777344 68.210938 C 98.777344 69.378906 98.777344 70.542969 98.777344 71.746094 C 98.699219 71.746094 98.617188 71.746094 98.535156 71.746094 C 98.535156 71.027344 98.535156 70.308594 98.535156 69.570312 C 98.375 69.570312 98.21875 69.570312 98.054688 69.570312 C 98.132812 69.121094 98.210938 68.675781 98.292969 68.210938 Z M 98.292969 68.210938 "/>
<path style=" stroke:none;fill-rule:nonzero;fill:rgb(96.470588%,95.686275%,96.470588%);fill-opacity:1;" d="M 83.804688 69.570312 C 84.28125 69.570312 84.761719 69.570312 85.253906 69.570312 C 85.253906 69.839844 85.253906 70.109375 85.253906 70.386719 C 84.773438 70.386719 84.296875 70.386719 83.804688 70.386719 C 83.804688 70.117188 83.804688 69.847656 83.804688 69.570312 Z M 83.804688 69.570312 "/>
<path style=" stroke:none;fill-rule:nonzero;fill:rgb(96.470588%,96.078432%,96.470588%);fill-opacity:1;" d="M 86.945312 72.015625 C 87.101562 72.015625 87.261719 72.015625 87.425781 72.015625 C 87.425781 72.824219 87.425781 73.632812 87.425781 74.460938 C 87.050781 74.003906 87.050781 74.003906 86.703125 73.375 C 86.777344 72.628906 86.777344 72.628906 86.945312 72.015625 Z M 86.945312 72.015625 "/>
<path style=" stroke:none;fill-rule:nonzero;fill:rgb(88.627452%,86.274511%,88.627452%);fill-opacity:1;" d="M 98.054688 63.050781 C 98.292969 63.40625 98.53125 63.765625 98.777344 64.136719 C 98.300781 64.136719 97.820312 64.136719 97.328125 64.136719 C 97.25 63.867188 97.167969 63.597656 97.085938 63.320312 C 97.40625 63.230469 97.722656 63.140625 98.054688 63.050781 Z M 98.054688 63.050781 "/>
</g>
</svg>
