<?xml version="1.0" standalone="no"?>
<!DOCTYPE svg PUBLIC "-//W3C//DTD SVG 20010904//EN"
 "http://www.w3.org/TR/2001/REC-SVG-20010904/DTD/svg10.dtd">
<svg version="1.0" xmlns="http://www.w3.org/2000/svg"
 width="530.000000pt" height="471.000000pt" viewBox="0 0 530.000000 471.000000"
 preserveAspectRatio="xMidYMid meet">

<g transform="translate(0.000000,471.000000) scale(0.100000,-0.100000)"
fill="#000000" stroke="none">
<path d="M2539 4390 c-30 -15 -88 -46 -129 -70 -41 -23 -84 -48 -95 -54 -11
-6 -31 -18 -45 -27 -66 -42 -267 -159 -285 -165 -11 -4 -22 -10 -25 -13 -3 -3
-23 -15 -45 -27 -56 -29 -118 -65 -130 -74 -13 -10 -263 -157 -335 -197 -84
-46 -127 -71 -218 -124 -45 -27 -84 -49 -87 -49 -2 0 -23 -13 -47 -29 -24 -16
-65 -40 -91 -54 -26 -14 -60 -36 -75 -49 -29 -24 -75 -92 -79 -118 -2 -8 -6
-33 -11 -55 -9 -53 -9 -1805 1 -1873 14 -97 99 -189 238 -259 20 -10 90 -50
155 -89 66 -40 135 -81 154 -91 19 -11 91 -53 160 -93 69 -41 151 -87 182
-104 63 -35 353 -203 528 -306 274 -162 312 -180 395 -180 64 0 78 4 160 46
50 25 126 68 170 94 44 26 145 85 225 130 80 46 148 87 151 92 3 5 9 9 13 9 6
-2 59 27 149 81 26 15 50 28 53 28 3 0 20 10 37 22 17 12 45 29 61 38 17 9 47
26 66 37 19 11 105 61 190 110 85 50 173 100 195 113 22 13 83 48 135 78 118
68 153 101 193 177 l32 60 0 956 c0 936 0 956 -20 995 -11 21 -30 50 -42 64
-13 13 -23 27 -23 30 0 11 -340 210 -359 210 -6 0 -11 4 -11 9 0 5 -8 12 -17
15 -25 9 -56 26 -237 133 -87 51 -163 93 -167 93 -5 0 -9 4 -9 9 0 5 -15 14
-32 22 -18 7 -35 15 -38 18 -3 4 -18 13 -35 21 -16 8 -32 17 -35 20 -6 6 -34
22 -110 63 -30 16 -59 33 -65 37 -5 4 -26 17 -45 28 -19 11 -66 39 -105 62
-60 37 -149 86 -225 125 -11 5 -20 13 -20 18 0 4 -4 5 -10 2 -5 -3 -10 -2 -10
4 0 5 -10 13 -22 17 -13 3 -35 15 -50 26 -16 11 -28 16 -28 12 0 -3 -6 -1 -14
5 -8 7 -48 13 -89 14 -63 3 -83 -1 -128 -23z m296 -850 c94 -12 218 -39 229
-51 6 -5 18 -9 27 -9 22 0 110 -39 133 -59 10 -9 20 -15 22 -13 4 2 50 -20 89
-45 11 -7 29 -16 40 -22 11 -5 29 -17 40 -28 11 -10 36 -30 55 -44 48 -36 151
-139 186 -185 16 -21 38 -49 49 -62 11 -13 30 -42 43 -65 27 -50 38 -38 -128
-136 -63 -37 -147 -86 -186 -109 -38 -23 -74 -42 -78 -42 -4 0 -19 -9 -33 -20
-36 -28 -54 -25 -83 17 -27 38 -127 144 -171 179 -31 25 -139 86 -139 78 0 -3
-6 -2 -12 3 -14 8 -13 8 -78 23 -97 24 -231 16 -307 -16 -17 -8 -36 -14 -43
-14 -11 0 -69 -29 -80 -40 -3 -3 -24 -18 -47 -34 -36 -24 -105 -93 -151 -150
-19 -23 -75 -149 -75 -166 0 -8 -5 -21 -10 -28 -16 -20 -15 -278 1 -294 7 -7
12 -20 12 -29 0 -10 5 -30 11 -46 6 -15 10 -28 8 -28 -7 0 70 -117 104 -157
61 -71 192 -160 254 -171 10 -2 36 -9 59 -15 22 -7 92 -13 155 -14 99 -2 122
1 177 21 34 13 65 28 68 32 3 5 12 9 21 9 18 0 136 82 155 108 7 9 23 25 35
35 21 18 22 18 85 -20 34 -22 74 -46 88 -54 14 -8 27 -16 30 -19 3 -3 23 -14
45 -25 22 -11 67 -37 99 -58 33 -21 76 -47 97 -58 21 -10 40 -23 44 -29 21
-35 -161 -221 -320 -326 -224 -149 -488 -213 -762 -186 -326 32 -609 192 -824
464 -38 48 -69 90 -69 93 0 4 -13 26 -30 50 -16 24 -30 48 -30 54 0 6 -9 26
-20 46 -11 19 -19 36 -19 38 1 1 -6 19 -14 40 -9 21 -19 54 -23 75 -4 20 -10
42 -15 47 -21 27 -31 329 -16 459 19 160 132 416 236 533 17 19 31 37 31 41 0
16 177 175 250 223 107 71 241 135 323 155 9 2 27 7 40 10 12 3 36 7 52 10 17
2 37 7 45 11 43 19 222 26 325 13z m865 -1007 l0 -48 80 0 80 0 0 48 0 47 65
0 65 0 0 -50 0 -50 50 0 50 0 0 -65 0 -65 -50 0 -50 0 0 -75 0 -75 50 0 50 0
0 -65 0 -65 -50 0 -50 0 0 -55 0 -55 -65 0 -65 0 0 55 0 55 -80 0 -80 0 0 -55
0 -55 -65 0 -65 0 0 55 0 55 -50 0 -50 0 0 65 0 65 50 0 50 0 0 75 0 75 -50 0
-50 0 0 69 0 69 50 -5 50 -5 0 51 0 51 65 0 65 0 0 -47z"/>
<path d="M3700 2275 l0 -75 80 0 80 0 0 75 0 75 -80 0 -80 0 0 -75z"/>
</g>
</svg>
