<?xml version="1.0" encoding="UTF-8"?>
<svg xmlns="http://www.w3.org/2000/svg" xmlns:xlink="http://www.w3.org/1999/xlink" width="128px" height="128px" viewBox="0 0 128 128" version="1.1">
<g id="surface1">
<path style=" stroke:none;fill-rule:nonzero;fill:rgb(58.431375%,23.921569%,67.450982%);fill-opacity:1;" d="M 73.597656 30.53125 C 75.296875 31.53125 77.007812 32.507812 78.71875 33.484375 C 79.3125 33.820312 79.902344 34.160156 80.496094 34.5 C 80.640625 34.582031 80.789062 34.664062 80.9375 34.75 C 82.738281 35.777344 84.535156 36.8125 86.328125 37.851562 C 87.574219 38.578125 88.828125 39.296875 90.089844 39.996094 C 90.535156 40.246094 90.984375 40.496094 91.429688 40.75 C 91.992188 41.0625 92.550781 41.375 93.117188 41.683594 C 95.308594 42.917969 96.800781 44.132812 97.589844 46.566406 C 97.898438 47.886719 97.855469 49.21875 97.847656 50.566406 C 97.847656 51.058594 97.847656 51.058594 97.851562 51.554688 C 97.855469 52.445312 97.851562 53.332031 97.851562 54.21875 C 97.847656 55.152344 97.851562 56.085938 97.851562 57.019531 C 97.851562 58.582031 97.851562 60.148438 97.847656 61.714844 C 97.84375 63.523438 97.84375 65.328125 97.847656 67.132812 C 97.851562 68.6875 97.851562 70.246094 97.851562 71.800781 C 97.851562 72.726562 97.851562 73.652344 97.851562 74.582031 C 97.855469 75.613281 97.851562 76.648438 97.847656 77.683594 C 97.847656 77.984375 97.851562 78.289062 97.851562 78.601562 C 97.835938 80.875 97.535156 82.984375 96 84.75 C 94.164062 86.042969 92.183594 87.136719 90.234375 88.25 C 89.804688 88.496094 89.375 88.742188 88.945312 88.988281 C 88.503906 89.242188 88.0625 89.496094 87.621094 89.75 C 86.246094 90.539062 84.875 91.332031 83.5 92.125 C 82.957031 92.4375 82.414062 92.75 81.875 93.0625 C 80.796875 93.683594 79.71875 94.304688 78.640625 94.929688 C 77.296875 95.707031 75.953125 96.480469 74.609375 97.253906 C 73.847656 97.695312 73.085938 98.136719 72.324219 98.574219 C 71.683594 98.945312 71.042969 99.316406 70.402344 99.683594 C 70.097656 99.863281 69.789062 100.039062 69.484375 100.21875 C 69.054688 100.464844 68.628906 100.710938 68.199219 100.957031 C 67.957031 101.097656 67.710938 101.238281 67.460938 101.386719 C 66.25 102.007812 65.15625 102.324219 63.796875 102.34375 C 63.558594 102.351562 63.320312 102.359375 63.074219 102.363281 C 60.917969 102.0625 58.972656 100.710938 57.109375 99.65625 C 56.835938 99.503906 56.5625 99.347656 56.28125 99.191406 C 54.195312 98.011719 52.125 96.808594 50.058594 95.597656 C 48.128906 94.46875 46.191406 93.355469 44.25 92.25 C 41.988281 90.960938 39.734375 89.667969 37.484375 88.359375 C 37.25 88.222656 37.011719 88.085938 36.769531 87.945312 C 30.785156 84.457031 30.785156 84.457031 30 81.75 C 29.9375 81.019531 29.9375 81.019531 29.933594 80.246094 C 29.929688 79.949219 29.929688 79.652344 29.925781 79.347656 C 29.925781 79.027344 29.925781 78.707031 29.925781 78.375 C 29.925781 78.03125 29.925781 77.6875 29.921875 77.34375 C 29.917969 76.410156 29.917969 75.476562 29.917969 74.546875 C 29.914062 73.960938 29.914062 73.378906 29.914062 72.796875 C 29.910156 70.757812 29.90625 68.722656 29.90625 66.6875 C 29.90625 64.789062 29.902344 62.894531 29.894531 61 C 29.886719 59.371094 29.886719 57.742188 29.886719 56.109375 C 29.886719 55.136719 29.882812 54.167969 29.878906 53.195312 C 29.875 52.277344 29.875 51.363281 29.878906 50.449219 C 29.878906 49.957031 29.875 49.460938 29.871094 48.96875 C 29.886719 46.84375 30.160156 45.507812 31.546875 43.84375 C 33.414062 42.265625 35.582031 41.105469 37.703125 39.90625 C 38.011719 39.730469 38.320312 39.554688 38.628906 39.382812 C 39.265625 39.019531 39.90625 38.65625 40.542969 38.292969 C 42.050781 37.4375 43.558594 36.578125 45.0625 35.71875 C 45.207031 35.636719 45.351562 35.554688 45.503906 35.46875 C 49.070312 33.429688 52.621094 31.355469 56.164062 29.273438 C 56.574219 29.03125 56.574219 29.03125 56.992188 28.785156 C 57.515625 28.476562 58.039062 28.167969 58.5625 27.859375 C 58.796875 27.722656 59.035156 27.582031 59.277344 27.441406 C 59.484375 27.320312 59.691406 27.199219 59.902344 27.074219 C 64.914062 24.367188 69.328125 28.019531 73.597656 30.53125 Z M 73.597656 30.53125 "/>
<path style=" stroke:none;fill-rule:nonzero;fill:rgb(50.980395%,17.647059%,59.607846%);fill-opacity:1;" d="M 96.75 45 C 97.960938 46.210938 97.808594 47.980469 97.820312 49.585938 C 97.820312 49.890625 97.820312 50.195312 97.820312 50.511719 C 97.820312 51 97.820312 51 97.824219 51.5 C 97.824219 52.386719 97.824219 53.277344 97.824219 54.167969 C 97.824219 54.914062 97.828125 55.65625 97.828125 56.402344 C 97.832031 58.160156 97.832031 59.917969 97.828125 61.679688 C 97.828125 63.488281 97.832031 65.296875 97.835938 67.105469 C 97.839844 68.664062 97.839844 70.222656 97.839844 71.78125 C 97.839844 72.707031 97.839844 73.636719 97.84375 74.566406 C 97.847656 75.601562 97.847656 76.636719 97.84375 77.675781 C 97.84375 77.980469 97.847656 78.285156 97.847656 78.597656 C 97.835938 80.871094 97.539062 82.980469 96 84.75 C 94.164062 86.042969 92.183594 87.136719 90.234375 88.25 C 89.804688 88.496094 89.375 88.742188 88.945312 88.988281 C 88.503906 89.242188 88.0625 89.496094 87.621094 89.75 C 86.246094 90.539062 84.875 91.332031 83.5 92.125 C 82.957031 92.4375 82.414062 92.75 81.875 93.0625 C 80.796875 93.683594 79.71875 94.304688 78.640625 94.929688 C 77.296875 95.707031 75.953125 96.480469 74.609375 97.253906 C 73.847656 97.695312 73.085938 98.136719 72.324219 98.574219 C 71.683594 98.945312 71.042969 99.316406 70.402344 99.683594 C 70.097656 99.863281 69.789062 100.039062 69.484375 100.21875 C 69.054688 100.464844 68.628906 100.710938 68.199219 100.957031 C 67.957031 101.097656 67.710938 101.238281 67.460938 101.386719 C 66.25 102.007812 65.15625 102.324219 63.796875 102.34375 C 63.558594 102.351562 63.320312 102.359375 63.074219 102.367188 C 60.917969 102.0625 58.972656 100.710938 57.109375 99.65625 C 56.835938 99.503906 56.5625 99.347656 56.28125 99.191406 C 54.195312 98.011719 52.125 96.808594 50.058594 95.597656 C 48.128906 94.46875 46.191406 93.355469 44.25 92.25 C 41.988281 90.960938 39.734375 89.667969 37.484375 88.359375 C 37.25 88.222656 37.011719 88.085938 36.769531 87.945312 C 31.789062 85.039062 31.789062 85.039062 30.75 83.5 C 30.75 83.335938 30.75 83.171875 30.75 83 C 30.964844 82.878906 30.964844 82.878906 31.183594 82.757812 C 37.238281 79.410156 37.238281 79.410156 43.15625 75.828125 C 43.75 75.5 43.75 75.5 44.5 75.5 C 44.875 75.960938 44.875 75.960938 45.28125 76.59375 C 48.84375 81.875 54.011719 85.097656 60.21875 86.3125 C 66.660156 87.25 72.476562 85.441406 77.714844 81.746094 C 79.886719 80.089844 82.03125 77.839844 83 75.25 C 82.816406 75.144531 82.632812 75.039062 82.441406 74.929688 C 81.75 74.53125 81.054688 74.128906 80.359375 73.730469 C 80.0625 73.558594 79.765625 73.386719 79.464844 73.214844 C 79.03125 72.964844 78.597656 72.714844 78.164062 72.46875 C 77.882812 72.304688 77.601562 72.144531 77.3125 71.976562 C 76.359375 71.417969 75.425781 70.832031 74.5 70.234375 C 73.96875 69.914062 73.96875 69.914062 73.25 70.25 C 72.839844 70.664062 72.839844 70.664062 72.4375 71.171875 C 70.640625 73.269531 68.566406 74.839844 65.75 75.25 C 62.222656 75.507812 59.273438 75.078125 56.480469 72.703125 C 54.355469 70.707031 52.84375 68.175781 52.65625 65.199219 C 52.574219 62.148438 53.125 59.730469 55 57.25 C 55.132812 57.050781 55.269531 56.847656 55.40625 56.640625 C 57.675781 54.191406 60.628906 53.054688 63.90625 52.921875 C 66.78125 52.953125 69.589844 54.132812 71.65625 56.132812 C 73.25 57.863281 73.25 57.863281 73.25 58.5 C 75.203125 57.4375 77.152344 56.363281 79.09375 55.28125 C 79.351562 55.136719 79.609375 54.996094 79.875 54.847656 C 81.503906 53.9375 83.089844 52.988281 84.671875 52.003906 C 85.929688 51.238281 87.210938 50.507812 88.496094 49.78125 C 89.253906 49.351562 90.015625 48.917969 90.773438 48.484375 C 90.921875 48.402344 91.070312 48.316406 91.222656 48.230469 C 93.078125 47.171875 94.914062 46.089844 96.75 45 Z M 96.75 45 "/>
<path style=" stroke:none;fill-rule:nonzero;fill:rgb(99.215686%,98.823529%,99.215686%);fill-opacity:1;" d="M 77.878906 46.5625 C 80.105469 48.382812 81.679688 50.367188 83.25 52.75 C 82.488281 53.585938 81.71875 54.09375 80.726562 54.632812 C 80.582031 54.710938 80.4375 54.792969 80.289062 54.875 C 79.828125 55.125 79.367188 55.375 78.90625 55.625 C 78.445312 55.875 77.988281 56.125 77.527344 56.375 C 77.109375 56.605469 76.691406 56.832031 76.273438 57.058594 C 75.480469 57.496094 75.480469 57.496094 74.699219 58.054688 C 74 58.5 74 58.5 73.25 58.5 C 72.863281 58.0625 72.863281 58.0625 72.453125 57.46875 C 70.734375 55.175781 68.300781 53.820312 65.5 53.25 C 62.292969 52.984375 59.636719 53.675781 57 55.5 C 56.777344 55.644531 56.554688 55.789062 56.328125 55.9375 C 54.214844 57.992188 53 60.457031 52.882812 63.394531 C 52.839844 66.875 53.777344 69.585938 56.144531 72.1875 C 58.609375 74.503906 61.4375 75.101562 64.683594 75.054688 C 67.765625 74.945312 70.226562 73.417969 72.328125 71.234375 C 72.746094 70.753906 73.128906 70.261719 73.5 69.75 C 74.511719 70.125 75.417969 70.605469 76.351562 71.140625 C 76.574219 71.265625 76.574219 71.265625 76.804688 71.398438 C 77.121094 71.578125 77.4375 71.761719 77.753906 71.941406 C 78.230469 72.21875 78.710938 72.492188 79.191406 72.765625 C 80.574219 73.554688 81.933594 74.355469 83.25 75.25 C 82.90625 76.242188 82.449219 76.941406 81.78125 77.75 C 81.613281 77.957031 81.441406 78.164062 81.265625 78.375 C 81.097656 78.582031 80.925781 78.789062 80.75 79 C 80.589844 79.210938 80.429688 79.417969 80.261719 79.636719 C 76.671875 83.9375 70.949219 86.191406 65.5 86.75 C 59.53125 87.1875 53.664062 85.21875 49.121094 81.308594 C 48.917969 81.125 48.710938 80.941406 48.5 80.75 C 48.324219 80.59375 48.144531 80.4375 47.964844 80.277344 C 43.941406 76.507812 41.554688 70.929688 41.199219 65.472656 C 41.105469 59.015625 43.179688 53.128906 47.636719 48.363281 C 55.714844 40.261719 68.878906 39.410156 77.878906 46.5625 Z M 77.878906 46.5625 "/>
<path style=" stroke:none;fill-rule:nonzero;fill:rgb(40.784314%,12.941177%,47.843137%);fill-opacity:1;" d="M 44.5 75.5 C 44.875 75.960938 44.875 75.960938 45.28125 76.59375 C 48.84375 81.875 54.011719 85.097656 60.21875 86.3125 C 66.660156 87.25 72.476562 85.441406 77.714844 81.746094 C 79.664062 80.261719 81.058594 78.453125 82.5 76.5 C 82.75 76.167969 83 75.832031 83.25 75.5 C 84.382812 75.914062 85.40625 76.472656 86.453125 77.0625 C 86.742188 77.222656 86.742188 77.222656 87.035156 77.386719 C 89.261719 78.636719 91.46875 79.929688 93.675781 81.226562 C 94.695312 81.824219 95.71875 82.414062 96.75 83 C 96.628906 84.074219 96.019531 84.542969 95.25 85.25 C 94.761719 85.585938 94.261719 85.90625 93.753906 86.210938 C 93.613281 86.292969 93.46875 86.378906 93.324219 86.46875 C 91.796875 87.382812 90.25 88.261719 88.703125 89.140625 C 88.085938 89.492188 87.46875 89.84375 86.851562 90.195312 C 86.695312 90.285156 86.539062 90.371094 86.378906 90.460938 C 84.824219 91.347656 83.269531 92.246094 81.71875 93.140625 C 81.453125 93.292969 81.1875 93.445312 80.914062 93.605469 C 80.109375 94.070312 79.304688 94.535156 78.5 95 C 76.59375 96.101562 74.683594 97.203125 72.773438 98.300781 C 72.007812 98.746094 71.242188 99.191406 70.476562 99.632812 C 70.007812 99.90625 69.535156 100.179688 69.0625 100.453125 C 68.851562 100.578125 68.636719 100.703125 68.417969 100.832031 C 66.898438 101.703125 65.582031 102.320312 63.796875 102.34375 C 63.558594 102.351562 63.320312 102.359375 63.074219 102.367188 C 60.917969 102.0625 58.972656 100.710938 57.109375 99.65625 C 56.835938 99.503906 56.5625 99.347656 56.28125 99.191406 C 54.195312 98.011719 52.125 96.808594 50.058594 95.597656 C 48.128906 94.46875 46.191406 93.355469 44.25 92.25 C 41.988281 90.960938 39.734375 89.667969 37.484375 88.359375 C 37.25 88.222656 37.011719 88.085938 36.769531 87.945312 C 31.789062 85.039062 31.789062 85.039062 30.75 83.5 C 30.75 83.335938 30.75 83.171875 30.75 83 C 30.894531 82.917969 31.035156 82.839844 31.183594 82.757812 C 37.238281 79.410156 37.238281 79.410156 43.15625 75.828125 C 43.75 75.5 43.75 75.5 44.5 75.5 Z M 44.5 75.5 "/>
<path style=" stroke:none;fill-rule:nonzero;fill:rgb(58.431375%,23.921569%,67.450982%);fill-opacity:1;" d="M 71 55.5 C 73.09375 57.527344 73.09375 57.527344 73.5 58.75 C 73.378906 58.816406 73.261719 58.878906 73.136719 58.945312 C 70.355469 60.453125 67.609375 62.007812 64.882812 63.605469 C 62.988281 64.71875 61.089844 65.816406 59.183594 66.90625 C 58.878906 67.082031 58.570312 67.257812 58.261719 67.433594 C 57.832031 67.679688 57.398438 67.929688 56.96875 68.175781 C 56.71875 68.316406 56.472656 68.457031 56.21875 68.601562 C 55.488281 69.007812 54.75 69.382812 54 69.75 C 53.835938 69.355469 53.675781 68.957031 53.515625 68.5625 C 53.425781 68.34375 53.335938 68.121094 53.242188 67.894531 C 52.34375 65.503906 52.34375 62.421875 53.3125 60.0625 C 53.800781 59.0625 54.328125 58.136719 55 57.25 C 55.199219 56.949219 55.199219 56.949219 55.40625 56.640625 C 59.5625 52.15625 66.21875 51.816406 71 55.5 Z M 71 55.5 "/>
<path style=" stroke:none;fill-rule:nonzero;fill:rgb(40.784314%,12.941177%,47.843137%);fill-opacity:1;" d="M 64.75 64.5 C 65.480469 64.851562 65.480469 64.851562 66.238281 65.300781 C 66.65625 65.542969 66.65625 65.542969 67.082031 65.792969 C 67.371094 65.964844 67.664062 66.140625 67.953125 66.3125 C 68.523438 66.648438 69.089844 66.980469 69.660156 67.316406 C 69.929688 67.476562 70.199219 67.636719 70.480469 67.800781 C 71.476562 68.382812 72.484375 68.945312 73.5 69.5 C 72.800781 71.589844 71.042969 73.035156 69.132812 74.035156 C 66.4375 75.371094 63.527344 75.730469 60.578125 75.03125 C 58.164062 74.164062 55.925781 72.683594 54.5 70.5 C 54.410156 70.167969 54.328125 69.835938 54.25 69.5 C 54.453125 69.386719 54.652344 69.269531 54.859375 69.152344 C 55.617188 68.722656 56.375 68.289062 57.132812 67.859375 C 57.457031 67.675781 57.78125 67.488281 58.109375 67.304688 C 58.425781 67.125 58.742188 66.941406 59.058594 66.761719 C 59.367188 66.585938 59.675781 66.410156 59.988281 66.234375 C 60.8125 65.765625 61.601562 65.265625 62.382812 64.730469 C 63.402344 64.164062 63.652344 64.214844 64.75 64.5 Z M 64.75 64.5 "/>
<path style=" stroke:none;fill-rule:nonzero;fill:rgb(98.431373%,97.647059%,98.823529%);fill-opacity:1;" d="M 83.75 56.75 C 84.410156 56.75 85.070312 56.75 85.75 56.75 C 85.585938 57.738281 85.421875 58.730469 85.25 59.75 C 86.238281 59.75 87.230469 59.75 88.25 59.75 C 88.332031 58.761719 88.414062 57.769531 88.5 56.75 C 89.160156 56.75 89.820312 56.75 90.5 56.75 C 90.417969 57.738281 90.335938 58.730469 90.25 59.75 C 90.746094 59.75 91.238281 59.75 91.75 59.75 C 91.75 60.328125 91.75 60.90625 91.75 61.5 C 91.089844 61.5 90.429688 61.5 89.75 61.5 C 89.585938 62.574219 89.421875 63.644531 89.25 64.75 C 89.828125 64.75 90.40625 64.75 91 64.75 C 91 65.328125 91 65.90625 91 66.5 C 90.339844 66.582031 89.679688 66.664062 89 66.75 C 88.835938 67.65625 88.671875 68.566406 88.5 69.5 C 87.839844 69.5 87.179688 69.5 86.5 69.5 C 86.664062 68.511719 86.828125 67.519531 87 66.5 C 86.011719 66.5 85.019531 66.5 84 66.5 C 83.964844 66.902344 83.929688 67.304688 83.890625 67.71875 C 83.78125 68.9375 83.78125 68.9375 83.5 69.5 C 82.921875 69.5 82.34375 69.5 81.75 69.5 C 81.714844 67.355469 81.714844 67.355469 82 66.5 C 81.503906 66.5 81.011719 66.5 80.5 66.5 C 80.5 65.921875 80.5 65.34375 80.5 64.75 C 81.160156 64.75 81.820312 64.75 82.5 64.75 C 82.515625 64.558594 82.53125 64.363281 82.546875 64.164062 C 82.566406 63.914062 82.585938 63.664062 82.609375 63.40625 C 82.628906 63.15625 82.648438 62.90625 82.671875 62.648438 C 82.75 62 82.75 62 83 61.5 C 82.421875 61.5 81.84375 61.5 81.25 61.5 C 81.25 60.839844 81.25 60.179688 81.25 59.5 C 81.910156 59.5 82.570312 59.5 83.25 59.5 C 83.265625 59.34375 83.28125 59.1875 83.296875 59.023438 C 83.316406 58.820312 83.335938 58.617188 83.359375 58.40625 C 83.378906 58.203125 83.398438 58 83.421875 57.789062 C 83.5 57.25 83.5 57.25 83.75 56.75 Z M 83.75 56.75 "/>
<path style=" stroke:none;fill-rule:nonzero;fill:rgb(51.764709%,18.82353%,60.392159%);fill-opacity:1;" d="M 84.75 61.5 C 85.738281 61.5 86.730469 61.5 87.75 61.5 C 87.667969 62.574219 87.585938 63.644531 87.5 64.75 C 86.511719 64.75 85.519531 64.75 84.5 64.75 C 84.582031 63.675781 84.664062 62.605469 84.75 61.5 Z M 84.75 61.5 "/>
</g>
</svg>
